<?xml version="1.0" encoding="UTF-8"?>
<svg width="512px" height="512px" viewBox="0 0 512 512" version="1.1" xmlns="http://www.w3.org/2000/svg" xmlns:xlink="http://www.w3.org/1999/xlink">
    <!-- Generator: Sketch 47.1 (45422) - http://www.bohemiancoding.com/sketch -->
    <title>configs</title>
    <desc>Created with Sketch.</desc>
    <defs></defs>
    <g id="Page-1" stroke="none" stroke-width="1" fill="none" fill-rule="evenodd">
        <g id="configs" fill-rule="nonzero">
            <g id="Group" transform="translate(42.000000, 110.000000)">
                <path d="M0.667,35.067 L111.6,35.067 C116.313,35.067 120.133,38.887 120.133,43.6 L120.133,111.867 C120.133,116.58 116.312,120.4 111.6,120.4 L9.2,120.4 C4.487,120.4 0.667,116.579 0.667,111.867 L0.667,35.067 Z" id="Shape" fill="#20A0FF"></path>
                <path d="M34.8,291.067 C30.776,291.028 27.338,288.156 26.582,284.204 C25.826,280.251 27.962,276.314 31.687,274.792 C35.413,273.27 39.694,274.587 41.922,277.938 C44.149,281.29 43.705,285.747 40.859,288.592 C39.222,290.15 37.059,291.033 34.8,291.067 Z" id="Shape" fill="#E4C05C"></path>
                <path d="M128.667,342.267 L128.667,350.8 C128.653,355.507 124.841,359.32 120.134,359.333 L9.2,359.333 C4.493,359.319 0.68,355.507 0.667,350.8 L0.667,342.267 L34.8,308.133 L56.133,329.466 L86,299.6 L128.667,342.267 Z" id="Shape" fill="#20A0FF"></path>
                <path d="M307.867,0.933 L418.8,0.933 C423.513,0.933 427.333,4.753 427.333,9.466 L427.333,94.8 C427.333,99.513 423.513,103.333 418.8,103.333 L307.867,103.333 C303.154,103.333 299.334,99.512 299.334,94.8 L299.334,9.467 C299.333,4.754 303.154,0.933 307.867,0.933 Z" id="Shape" fill="#20A0FF"></path>
                <g transform="translate(307.000000, 265.000000)" id="Shape" fill="#20A0FF">
                    <path d="M111.8,34.6 L111.8,68.733 C111.8,78.12 86.969,85.8 56.333,85.8 C25.697,85.8 0.866,78.12 0.866,68.733 L0.866,34.6 C0.866,43.987 25.697,51.667 56.333,51.667 C86.969,51.667 111.8,43.987 111.8,34.6 Z"></path>
                    <path d="M111.8,0.467 L111.8,34.6 C111.8,43.987 86.969,51.667 56.333,51.667 C25.697,51.667 0.866,43.987 0.866,34.6 L0.866,0.467 C0.866,9.854 25.697,17.534 56.333,17.534 C86.969,17.534 111.8,9.853 111.8,0.467 Z"></path>
                </g>
                <circle id="Oval" fill="#20A0FF" cx="218.267" cy="175.867" r="64"></circle>
            </g>
            <g id="Group" fill="#343E46">
                <path d="M494.933,0 L17.067,0 C7.645,0.011 0.011,7.645 0,17.067 L0,494.934 C0.011,504.355 7.645,511.99 17.067,512.001 L494.934,512.001 C504.355,511.99 511.99,504.356 512.001,494.934 L512.001,17.067 C511.989,7.645 504.355,0.011 494.933,0 Z M494.933,17.067 L494.933,51.2 L17.067,51.2 L17.067,17.067 L494.933,17.067 Z M17.067,494.933 L17.067,68.267 L494.935,68.267 L494.943,494.934 L17.067,494.934 L17.067,494.933 Z" id="Shape"></path>
                <path d="M42.667,42.667 L93.867,42.667 C98.58,42.667 102.4,38.846 102.4,34.134 C102.4,29.422 98.579,25.6 93.867,25.6 L42.667,25.6 C37.954,25.6 34.134,29.421 34.134,34.133 C34.134,38.845 37.954,42.667 42.667,42.667 Z" id="Shape"></path>
                <path d="M128,42.667 L145.067,42.667 C149.78,42.667 153.6,38.846 153.6,34.134 C153.6,29.422 149.779,25.601 145.067,25.601 L128,25.601 C123.287,25.601 119.467,29.422 119.467,34.134 C119.467,38.846 123.287,42.667 128,42.667 Z" id="Shape"></path>
                <path d="M179.2,42.667 L196.267,42.667 C200.98,42.667 204.8,38.846 204.8,34.134 C204.8,29.422 200.979,25.601 196.267,25.601 L179.2,25.601 C174.487,25.601 170.667,29.422 170.667,34.134 C170.667,38.846 174.487,42.667 179.2,42.667 Z" id="Shape"></path>
                <path d="M230.4,42.667 L247.467,42.667 C252.18,42.667 256,38.846 256,34.134 C256,29.422 252.18,25.601 247.467,25.601 L230.4,25.601 C225.687,25.601 221.867,29.422 221.867,34.134 C221.867,38.846 225.687,42.667 230.4,42.667 Z" id="Shape"></path>
                <path d="M281.6,42.667 L298.667,42.667 C303.38,42.667 307.2,38.846 307.2,34.134 C307.2,29.422 303.38,25.601 298.667,25.601 L281.6,25.601 C276.887,25.601 273.067,29.422 273.067,34.134 C273.067,38.846 276.887,42.667 281.6,42.667 Z" id="Shape"></path>
                <path d="M469.333,42.667 L477.866,42.667 C482.579,42.667 486.399,38.846 486.399,34.134 C486.399,29.422 482.579,25.601 477.866,25.601 L469.333,25.601 C464.62,25.601 460.8,29.422 460.8,34.134 C460.8,38.846 464.621,42.667 469.333,42.667 Z" id="Shape"></path>
                <path d="M460.8,102.4 L349.867,102.4 C340.446,102.411 332.811,110.045 332.8,119.467 L332.8,154.089 C306.93,156.686 269.409,171.348 265.023,213.574 C263.444,213.471 261.872,213.333 260.267,213.333 C255.578,213.34 250.902,213.802 246.302,214.712 C244.46,198.472 236.847,183.433 224.85,172.333 C209.559,159.854 190.376,153.131 170.64,153.337 C170.495,144.026 162.913,136.549 153.6,136.533 L110.933,136.533 L110.933,119.466 C110.922,110.045 103.288,102.41 93.866,102.399 L51.2,102.399 C41.779,102.41 34.144,110.044 34.133,119.466 L34.133,221.866 C34.144,231.287 41.778,238.922 51.2,238.933 L153.6,238.933 C163.021,238.922 170.656,231.288 170.667,221.866 L170.667,170.423 C186.226,170.248 201.37,175.438 213.55,185.12 C223.159,194.346 228.954,206.844 229.787,220.139 C208.289,230.141 193.023,250.004 188.89,273.352 C167.463,273.536 147.021,282.38 132.216,297.87 C118.172,314.9 110.564,336.326 110.723,358.399 L51.2,358.399 C41.779,358.41 34.144,366.044 34.133,375.466 L34.133,460.8 C34.144,470.221 41.778,477.856 51.2,477.867 L162.133,477.867 C171.554,477.856 179.189,470.222 179.2,460.8 L179.2,375.467 C179.189,366.046 171.555,358.411 162.133,358.4 L127.816,358.4 C127.68,340.529 133.731,323.16 144.941,309.242 C156.274,297.594 171.718,290.848 187.964,290.446 C190.238,326.964 219.38,356.056 255.901,358.268 C292.423,360.48 324.862,335.116 331.526,299.14 C348.138,300.923 387.326,309.566 391.96,350.351 C366.316,352.153 341.332,359.382 341.332,375.467 L341.332,443.734 C341.332,463.942 381.565,469.334 405.332,469.334 C429.099,469.334 469.332,463.942 469.332,443.734 L469.332,375.467 C469.332,357.369 437.716,350.472 409.105,349.921 C404.574,301.146 361.532,284.653 332.605,282.04 C330.993,251.829 310.822,225.782 281.976,216.662 C284.982,181.926 317.046,173.395 332.799,171.353 L332.799,204.8 C332.81,214.221 340.444,221.856 349.866,221.867 L460.8,221.867 C470.221,221.856 477.856,214.222 477.867,204.8 L477.867,119.467 C477.856,110.045 470.221,102.411 460.8,102.4 Z M51.2,119.467 L93.867,119.467 L93.867,136.534 L51.2,136.534 L51.2,119.467 Z M51.2,221.867 L51.2,153.6 L153.6,153.6 L153.609,221.867 L51.2,221.867 Z M51.2,460.8 L51.2,455.8 L76.8,430.2 L86.423,439.823 C84.652,443.086 85.225,447.125 87.834,449.766 C89.434,451.367 91.604,452.266 93.867,452.266 C96.13,452.266 98.3,451.367 99.9,449.766 L128,421.666 L162.142,455.807 L162.142,460.799 L51.2,460.799 L51.2,460.8 Z M162.14,431.672 L134.033,403.567 C132.433,401.966 130.263,401.067 128,401.067 C125.737,401.067 123.567,401.966 121.967,403.567 L98.133,427.401 L82.833,412.101 C81.233,410.5 79.063,409.601 76.8,409.601 C74.537,409.601 72.367,410.5 70.767,412.101 L51.2,431.667 L51.2,375.467 L162.133,375.467 L162.14,431.672 Z M452.267,408.675 C449.16,412.08 432.736,418.133 405.334,418.133 C377.932,418.133 361.508,412.079 358.401,408.675 L358.401,393.936 C373.507,399.044 389.393,401.458 405.334,401.067 C421.275,401.458 437.162,399.045 452.267,393.936 L452.267,408.675 Z M358.4,442.782 L358.4,428.07 C373.506,433.178 389.392,435.592 405.333,435.201 C421.274,435.592 437.161,433.179 452.266,428.07 L452.266,442.782 C449.337,445.849 433.178,452.267 405.333,452.267 C377.488,452.267 361.329,445.848 358.4,442.782 Z M405.333,384 C380.275,384 364.383,378.937 359.475,375.467 C364.383,371.996 380.275,366.934 405.333,366.934 C430.391,366.934 446.283,371.997 451.191,375.467 C446.283,378.938 430.392,384 405.333,384 Z M277.852,256 L242.681,256 C247.087,239.86 254.524,230.4 260.266,230.4 C266.009,230.4 273.446,239.86 277.852,256 Z M315.733,285.867 C315.717,290.18 315.197,294.475 314.183,298.667 L298.081,298.667 C298.441,294.522 298.666,290.267 298.666,285.867 C298.666,281.467 298.441,277.212 298.081,273.067 L314.183,273.067 C315.197,277.258 315.718,281.554 315.733,285.867 Z M281.6,285.867 C281.601,290.142 281.386,294.414 280.957,298.667 L239.576,298.667 C238.719,290.155 238.719,281.579 239.576,273.067 L280.957,273.067 C281.386,277.32 281.601,281.592 281.6,285.867 Z M260.267,341.333 C254.524,341.333 247.088,331.873 242.682,315.733 L277.853,315.733 C273.446,331.873 266.01,341.333 260.267,341.333 Z M204.8,285.867 C204.816,281.554 205.336,277.259 206.35,273.067 L222.452,273.067 C222.092,277.212 221.867,281.467 221.867,285.867 C221.867,290.267 222.092,294.522 222.452,298.667 L206.35,298.667 C205.336,294.475 204.816,290.179 204.8,285.867 Z M230.415,239.194 C228.116,244.619 226.323,250.245 225.058,256 L213.603,256 C217.935,249.256 223.669,243.525 230.415,239.194 Z M213.602,315.733 L225.057,315.733 C226.322,321.488 228.116,327.114 230.414,332.539 C223.669,328.209 217.935,322.477 213.602,315.733 Z M290.119,332.539 C292.418,327.114 294.211,321.488 295.476,315.733 L306.931,315.733 C302.598,322.477 296.864,328.209 290.119,332.539 Z M306.931,256 L295.476,256 C294.211,250.245 292.418,244.62 290.119,239.194 C296.864,243.525 302.598,249.256 306.931,256 Z M349.867,204.8 L349.867,119.467 L460.8,119.467 L460.809,204.8 L349.867,204.8 Z" id="Shape"></path>
                <path d="M390.033,139.034 C388.433,137.433 386.263,136.534 384,136.534 C381.737,136.534 379.567,137.433 377.967,139.034 L360.9,156.1 C359.299,157.7 358.4,159.87 358.4,162.133 C358.4,164.396 359.299,166.566 360.9,168.166 L377.967,185.233 C380.122,187.389 383.264,188.23 386.209,187.441 C389.153,186.652 391.453,184.352 392.242,181.408 C393.031,178.464 392.189,175.322 390.034,173.166 L379,162.133 L390.034,151.099 C391.634,149.499 392.534,147.329 392.533,145.066 C392.533,142.804 391.634,140.633 390.033,139.034 Z" id="Shape"></path>
                <path d="M432.7,139.034 C429.359,135.753 423.999,135.778 420.688,139.088 C417.377,142.399 417.353,147.759 420.634,151.1 L431.667,162.134 L420.633,173.168 C418.455,175.319 417.596,178.472 418.382,181.43 C419.168,184.388 421.479,186.699 424.437,187.485 C427.395,188.271 430.548,187.412 432.699,185.234 L449.766,168.167 C451.367,166.567 452.266,164.397 452.266,162.134 C452.266,159.871 451.367,157.701 449.766,156.101 L432.7,139.034 Z" id="Shape"></path>
                <path d="M76.8,401.067 C80.824,401.028 84.262,398.156 85.018,394.204 C85.774,390.252 83.638,386.314 79.913,384.792 C76.187,383.27 71.906,384.587 69.678,387.938 C67.451,391.29 67.895,395.747 70.741,398.592 C72.379,400.148 74.541,401.032 76.8,401.067 Z" id="Shape"></path>
            </g>
        </g>
    </g>
</svg>