<?xml version="1.0" encoding="utf-8"?>
<!-- Generator: Adobe Illustrator 21.1.0, SVG Export Plug-In . SVG Version: 6.00 Build 0)  -->
<svg version="1.1" id="Layer_1" xmlns="http://www.w3.org/2000/svg" xmlns:xlink="http://www.w3.org/1999/xlink" x="0px" y="0px"
	 viewBox="0 0 100 100" style="enable-background:new 0 0 100 100;" xml:space="preserve">
<style type="text/css">
	.st0{fill:#333E47;}
	.st1{fill:#B3DFFF;}
	.st2{fill:#73C3FF;}
	.st3{fill:#0B8FFF;}
	.st4{fill:#D2EEFF;}
	.st5{fill:#36A9FF;}
	.st6{fill:#D9A02B;}
	.st7{fill:#CD8104;}
	.st8{fill:#29D34D;}
	.st9{fill:#C5CC08;}
	.st10{fill:#CD8001;}
	.st11{fill:#C5CC09;}
	.st12{fill:#5AA104;}
	.st13{fill:#5AA103;}
</style>
<title>admindashboard copy</title>
<desc>Created with Sketch.</desc>
<g id="Page-1_1_">
	<g id="admindashboard-copy">
		<g id="Page-1" transform="translate(1.000000, 0.000000)">
			<g id="Group-3" transform="translate(0.000000, 1.122121)">
				<path id="Fill-1" class="st0" d="M44.5,28.4c2-4.6,1.9-6.1-0.5-9.3c-0.5-0.7-1.1-1.3-1.7-1.9c-2.1-1.9-4.3-3.5-6.2-5.6
					c-2.3-2.5-5-3.1-8.4-2.4c1,3.8,1.9,7.7,3,11.5c0.1,0.4,0.7,0.8,1.1,1C36.1,24,40.2,26.2,44.5,28.4 M47,38L47,38
					c-1-2.1-1.5-4.9-3.1-6.3c-3.4-3.1-7.4-5.6-12.1-6.8c1,5.4,1.6,11,5.1,15.7c2.3,6.1,4.6,12.2,6.9,18.4c0.3,0,0.6-0.1,0.9-0.1
					c1.1-5.4,2.2-10.8,3.4-16.2c0.4-1.6,0.1-3-0.8-4.3C47.2,38.3,47.1,38.2,47,38 M43.4,66.7c0,0,0,0.1,0.1,0.1c0,0,0.1,0,0.1,0
					C43.5,66.8,43.5,66.8,43.4,66.7c-0.5-4-1.5-7.8-3.7-11.3c-0.7-1.8-1.6-3.5-2.2-5.3c-1.3-4.2-4.2-6.6-8.5-7.4
					c-2.6-0.5-5.2-1-7.8-1.5c-0.2-0.1-0.4-0.1-0.6-0.2c0.1,0.2,0.2,0.3,0.3,0.5c1.8,2.4,3.3,5.2,5.5,7.1c2.8,2.4,4.9,5,6.4,8.2
					c0.6,1.2,1.1,2.5,1.6,3.8C37,63.4,40.1,65.2,43.4,66.7 M94.2,65.9c1,0.7,1.1,1.5,0.1,2.3c-3.2,0.1-6.2-0.4-9.2-1.6
					c-2.2-0.9-4.5-1.6-6.9-2.1c-1.4-0.3-3.2-0.6-4.4-0.1c-2.7,1.2-5.2,2.8-7.8,4.3c-0.5,0.3-0.9,0.8-1.3,1.1
					c1.8,0.4,3.8,0.3,4.9,1.3c2,1.8,4.2,1.7,6.5,1.5c4.7-0.3,9,0.6,12.6,3.9l-0.2,2.1c-0.8-0.3-1.7-0.6-2.5-0.9
					c-0.1-0.1-0.3-0.2-0.4-0.2l0,0c-1.7-0.7-3.3-1.8-5-2.1c-2.6-0.4-5.3-0.2-8-0.4c-1-0.1-2.3-0.3-3-1c-1.9-1.7-4-1.8-6.2-1
					c-0.3,0.1-0.8,0.2-0.9,0.5c-1.1,2.5-2.5,5-3.1,7.7c-0.5,2.6,2.2,5.2,5.2,5.8c4.6,0.8,9-0.1,13.5-1.1c0.6-0.1,1.3,0.1,2,0.2
					c-0.2,0.7-0.3,1.4-0.5,2c-0.4,0.1-0.8,0.1-1.2,0.2c-4.4,1.1-8.8,1.8-13.4,1.2c-6.5-0.8-9.7-6.6-6.9-12.4
					c0.7-1.4,1.2-2.9,1.8-4.3c0.5-1,0.9-2.1,1.5-3c1.5-2.4,3.1-4.8,4.6-7.2c2.7-3.9,5.1-7.9,6-12.8c-2.9,1-5.5,2.2-8.1,3.6
					c-0.6,0.3-1,1.3-1.5,1.9c-1.9,4.2-3.9,8.3-5.5,12.5c-1,2.6-1.2,5.5-1.8,8.2c-0.3,1.5-0.3,3.1-0.9,4.4c-0.8,1.9-0.6,3.6,0.1,5.3
					c1.6,3.6,3.3,7.1,4.9,10.7c-0.8,1.6-1.3,1.7-2.8,0.3c-1.5-3.3-2.9-6.5-4.4-9.8c-0.8-2.6-0.9-5.1,0-7.9c1.2-4,1.7-8.2,2.5-12.3
					l0,0l0.3-0.4c0.2-0.6,0.6-1.2,0.6-1.8c0-1.8-0.1-3.6-0.3-5.4c-0.5-4.8-3-8.8-4.6-13.6c-1.3,5.2-2.6,9.8-3.7,14.5
					c-0.4,1.8-0.5,3.7-0.7,5.6c0.1,0.1,0.2,0.3,0.3,0.4l0,0c0.5,2.4,1.2,4.8,1.4,7.2c0.4,4.8,0.5,9.7,0.7,14.6
					c-0.5,3.2-0.9,6.4-1.3,9.6c-1.1,1.5-1.6,1.4-2.6,0c0.5-3.4,1-6.8,1.4-10.2c-2.5,3.4-5.3,6.4-8.7,8.7c-0.4,0.1-0.8,0.2-1.2,0.4
					c-1.4,0.5-2.2,0.2-2.3-1.4c1.1-0.6,2.4-1.2,3.4-2c5.3-4.1,9-9,8.1-16.3c0.6-3.8-0.8-6.4-4.3-8.3c-2.6-1.4-4.9-3.3-7.3-5
					c-1-0.6-2-1.4-3.1-1.5c-3-0.5-5.5-1.7-7.3-4c-0.9-1.2-1.9-1.5-3.3-1.3c-6.1,0.6-12.1,1.3-18.2,1.9c-1.3-0.6-1.4-1.5-0.4-2.5
					c1-0.1,1.9-0.2,2.9-0.3c5.5-0.5,11.1-0.9,16.6-1.3c1.7-0.1,3.1,0.4,4.3,1.9c1.5,1.8,3.4,3,6.4,3c-1.2-2-1.9-3.8-3.1-5.2
					c-2.4-2.7-4.8-5.6-8.6-6.3c-1.8-0.3-3.6-0.2-5.4,0c-4.4,0.6-8.8,1.4-13.3,2.1c-1.4-1-1.4-1.4-0.1-2.5c6.3-0.7,12.5-2.8,19.2-2.1
					c-1.9-3.7-4.6-6-8.4-6.8c-3-0.6-6.1-1.2-9.1-1.7c-1-1.6-0.8-2.1,1.1-2.3c10.1,2.4,20.3,4.8,30.7,7.2c-1.1-2.3-1.7-4.7-4.8-5
					c-1-0.1-2-0.7-3-1.2c-1.6-0.7-3.1-1.5-4.7-1.9c-5.5-1.4-11-2.6-16.1-5.3c-0.7-1.9-0.4-2.3,1.7-2.2c0.9,0.5,1.8,1.2,2.9,1.5
					c6,2,12,3.9,18,5.8c0.1,0,0.1,0.1,0.2,0.1c-0.1-0.1-0.1-0.1-0.2-0.2c-1.5-1.6-3-3.2-4.4-4.9c-3.4-4.2-8.2-5.9-13.1-7.5l-0.4-2
					c0.7-0.1,1.4-0.1,2.1-0.2C20,20.6,25.3,25.2,30,30.8c0.2-0.1,0.3-0.3,0.5-0.4c-1.4-5.7-2.8-11.5-4.3-17.2
					c-0.1-0.1-0.2-0.2-0.3-0.3l0,0c-0.4-1.8-0.8-3.6-1.2-5.3c0.2-2.3,0.8-2.6,3-1.5c1.3,0.2,2.7,0.5,4,0.5c1.7,0,3.1,0.5,4.4,1.7
					c1.2,1.3,2.7,2.3,4.2,3.6c0.4-1.1,0.7-2,1-2.8c0.3-0.9,0.7-1.8,1.1-2.7c0.7-1.6,1.3-3.2,2-4.8C45.6,0.1,46,0,47.2,1.3
					c-0.5,1.5-1,2.9-1.6,4.4c-0.9,2.4-1.8,4.7-2.7,7.1c-0.1,0.4-0.1,1.1,0.2,1.5c1.6,2,3.3,4,4.9,6c0.2-0.4,0.5-0.9,0.8-1.4
					c3-5.4,5.5-11,7.1-17c1.1-1,2.1-1,2.5,0.6c-0.3,0.6-0.7,1.2-0.8,1.8c-1.2,5.6-4,10.5-6.5,15.5c-1.6,3.3-2.8,6.8-4.2,10.2
					c0,0.4-0.1,0.9,0.1,1.3c1.7,4.1,3.5,8.1,5.3,12.1c1.9,5.3,3.9,10.6,5.7,15.6c2.8-5,2.9-6.5,1-12.3c-0.8-2.5-1-5.1-0.5-7.7
					c0.4-1.8,0.6-3.7,0.8-5.5c-0.2-3.5-0.5-7-0.7-10.5c0.3-3.7,0.2-7.5,0.8-11.1c0.5-3.1,1.8-6,2.8-9c1.2-1,1.9-0.8,2.4,0.7
					c-1.1,3.8-2.4,7.6-3.2,11.5c-0.8,3.9-0.3,7.9,0.4,12.1c0.8-1.1,1.2-2,1.9-2.6c3-2.6,3.6-5.9,3.2-9.6c-0.4-3.6,0.6-6.9,2-10.1
					c1-0.2,1.7,0.1,2,1.1c-0.2,0.8-0.4,1.7-0.7,2.4c-1.3,3.3-1.2,6.6-0.7,10.1c3.2-2.4,6.3-4.8,9.4-7.1c1.5-0.4,2.1,0.3,1.8,1.8
					c-4,3.2-8,6.3-12,9.5c-0.8,0.9-1.7,1.7-2.5,2.6c-2.2,2.9-4.6,5.8-4.5,9.8C61,39,59.9,43,61.6,46.6c2.1-1.4,4-2.9,6.1-4.1
					c1.9-1.1,3.6-2.4,4.5-4.5c2.4-4.4,4.7-8.8,7.1-13.1c0.5-1,1-2,1.5-3.1c1-2,2-4.1,3-6.1c1.3,0,1.9,0.6,1.7,1.9
					c-0.6,1.3-1.2,2.7-1.8,4c-2.1,4.1-4.1,8.2-6.2,12.3c-0.4,0.9-0.8,1.7-1.2,2.6c0,0.1-0.1,0.2-0.1,0.2c0.1,0,0.2-0.1,0.2-0.1
					c2.4-0.6,4.9-1.3,7.3-1.8c3.4-0.8,6.9-1.4,9.2-4.5c2,0.3,2.3,0.9,1.2,2.3c-2.7,3.2-6.4,3.9-10.2,4.7c-2.1,0.4-4.4,0-6,1.8
					c-3.6,2.2-7.2,4.4-10.8,6.5c-1.9,1.1-3.2,2.7-3.6,4.6c3.4-1,6.8-2.1,10.3-3c2.7-0.7,5.6-1.1,8.3-1.9c4.7-1.4,9.4-3.1,14.1-4.7
					c1.5,0.9,1.6,1.3,0.3,2.5l-1,0.3c-6,1.9-12,3.9-18.1,5.6c-1.6,0.4-2.2,1.2-2.9,2.5c-1.8,3.9-3.8,7.7-5.7,11.5
					c-0.3,0.5-0.4,1.1-0.6,1.6c-0.1,0-0.1,0.1-0.2,0.1c0,0,0.1,0,0.1,0c0,0,0.1-0.1,0.1-0.1c2.8-1.8,5.5-3.6,8.3-5.2
					c2.2-1.3,4.3-2.7,6.7-3.4c4.6-1.4,9.3-2.5,14-3.6c0.3,0.5,0.7,1,1,1.4c-0.7,0.5-1.3,0.9-2,1.4c-4.7,1.2-9.4,2.3-14,3.7
					c-1.7,0.5-3.2,1.8-5,2.9c2.9,0.8,5.4,1.1,7.6,2.2C87.8,65.3,90.9,65.8,94.2,65.9"/>
			</g>
			<path id="Fill-4" class="st1" d="M1.7,59.5c6.1-0.6,12.1-1.2,18.2-1.9c1.4-0.1,2.3,0.2,3.3,1.3c1.9,2.3,4.4,3.5,7.3,4
				c1.1,0.2,2.1,0.9,3.1,1.5c2.5,1.6,4.7,3.6,7.3,5c3.5,1.9,4.9,4.5,4.3,8.3c-1.2-0.4-2.4-0.7-3.6-1.1c-1.9-4.4-5.8-6.8-11-6.2
				c-4.5,0.5-8.7-0.5-12.7-2.1c-4.7-1.9-9.4-1.6-14.2-1.3C2.5,64.6,1.2,62.3,1.7,59.5"/>
			<path id="Fill-6" class="st0" d="M3.7,67c4.8-0.3,9.6-0.6,14.2,1.3c4,1.6,8.2,2.6,12.7,2.1c5.2-0.6,9,1.8,11,6.2
				c0.2,2,0.6,3.9,0.7,5.9c0.1,3.5-1.3,5.2-4.7,6.1c-0.8,0.2-1.7,0.2-2.2,0.7c-2.6,2.3-5.7,2-8.7,1.5c-1.8-0.3-3.6-0.8-5.4-1.1l0,0
				c-0.3-0.1-0.5-0.3-0.8-0.4c-0.7-0.3-1.4-0.7-2.1-1c-0.9-0.4-2.3-0.6-1.7-2c0.6-1.4,1.7-0.6,2.7-0.3c2.3,0.7,4.6,1.6,6.9,2.2
				c2.8,0.7,5.6,1.2,8-1.1c0.5-0.5,1.6-0.5,2.4-0.7c2.1-0.6,3.2-1.7,3.2-3.9c0-2.6,0.1-5.3-2.1-7.4c-2.3-2.2-5.8-2.9-8.5-1.8
				c-2.1,0.8-4.2,1.3-6.4,1.9c-2.5,0.2-4.9,0.4-7.4,0.8c-1.6,0.2-3.1,1-4.1,2.4c-0.3,0.5-1.3,0.6-1.9,0.8c-0.1-0.7-0.3-1.4-0.4-2.1
				c3.5-4.7,8.9-3.7,13.9-4.7c-1.3-0.4-2.4-0.6-3.5-1c-1.9-0.6-3.7-1.6-5.6-1.8c-3-0.4-6-0.2-9-0.3C3.3,69.1,2.9,68.3,3.7,67"/>
			<path id="Fill-8" class="st2" d="M97.1,53.4c-4.7,1.2-9.4,2.2-14,3.6c-2.4,0.7-4.5,2.1-6.7,3.4c-2.8,1.7-5.6,3.5-8.4,5.3l0,0
				c0.2-0.5,0.4-1.1,0.6-1.6c1.9-3.8,3.8-7.6,5.7-11.5c0.6-1.3,1.3-2.1,2.9-2.5c6.1-1.7,12.1-3.7,18.1-5.6l1-0.3
				C96.7,47.2,96.9,50.3,97.1,53.4"/>
			<path id="Fill-10" class="st1" d="M88.7,77.8c-3.6-3.3-7.9-4.2-12.6-3.9c-2.3,0.1-4.4,0.2-6.5-1.5c-1.1-1-3.1-0.9-4.9-1.3
				c0.3-0.3,0.8-0.8,1.3-1.1c2.6-1.5,5-3.2,7.8-4.3c1.2-0.5,3-0.2,4.4,0.1c2.3,0.5,4.7,1.2,6.9,2.1c3,1.2,6.1,1.6,9.2,1.6
				c-0.3,0.6-0.5,1.3-0.9,1.9c-0.8,1.2-1.6,2.3-2.4,3.5C90.2,75.8,89.5,76.8,88.7,77.8"/>
			<path id="Fill-12" class="st2" d="M1.1,50.9c4.4-0.7,8.8-1.5,13.3-2.1c1.8-0.2,3.7-0.3,5.4,0c3.8,0.7,6.2,3.6,8.6,6.3
				c1.2,1.4,2,3.2,3.1,5.2c-3,0-5-1.1-6.4-3c-1.2-1.4-2.5-2-4.3-1.9c-5.5,0.4-11.1,0.9-16.6,1.3c-1,0.1-1.9,0.2-2.9,0.3
				C1.2,55,1.1,52.9,1.1,50.9"/>
			<path id="Fill-14" class="st2" d="M96.1,41.6c-4.7,1.6-9.3,3.3-14.1,4.7c-2.7,0.8-5.5,1.2-8.3,1.9c-3.5,0.9-6.9,2-10.3,3
				c0.4-1.9,1.7-3.4,3.6-4.6c3.6-2.1,7.2-4.3,10.8-6.5c1.5-0.3,3.1-0.6,4.6-0.8c1.5-0.2,3.1-0.4,4.6-0.4c2.9-0.1,5.8,0.2,8.2,2.2
				c0.1,0.1,0.5,0.1,0.7,0.1C96,41.4,96.1,41.5,96.1,41.6"/>
			<path id="Fill-16" class="st3" d="M46.9,31.1c1.4-3.4,2.6-6.9,4.2-10.2c2.5-5.1,5.3-9.9,6.5-15.5c0.1-0.6,0.5-1.2,0.8-1.8
				C59.7,3.8,61,4,62.3,4.1c-0.9,3-2.2,5.9-2.8,9c-0.6,3.7-0.6,7.4-0.8,11.1c-2.3-1.2-2.7-1-3.7,1.4C53.1,30.2,51.7,31.2,46.9,31.1"
				/>
			<path id="Fill-18" class="st4" d="M59.7,74.1c-0.6,1.4-1.2,2.9-1.8,4.3c-2.8,5.8,0.5,11.6,6.9,12.4c4.6,0.6,9-0.2,13.4-1.2
				c0.4-0.1,0.8-0.2,1.2-0.2c-1.8,1-3.6,2.2-5.5,3c-4.9,1.9-9.5,4.7-14.9,5.4c-1.6-3.5-3.3-7.1-4.9-10.6c-0.7-1.7-0.9-3.4-0.1-5.3
				c0.6-1.4,0.6-2.9,0.9-4.4C56.6,76.2,58.2,75.2,59.7,74.1"/>
			<path id="Fill-20" class="st5" d="M5.9,29.3C11,32,16.5,33.2,22,34.5c1.6,0.4,3.1,1.3,4.7,1.9c1,0.4,2,1.1,3,1.2
				c3,0.3,3.7,2.6,4.8,5C24,40.2,13.9,37.8,3.7,35.4C4.5,33.4,5.2,31.3,5.9,29.3"/>
			<path id="Fill-22" class="st3" d="M55.9,3c-1.6,6-4.1,11.6-7.1,17c-0.3,0.5-0.6,1-0.8,1.4c-1.7-2-3.3-4-4.9-6
				c-0.3-0.3-0.4-1-0.2-1.5c0.8-2.4,1.8-4.7,2.7-7.1c0.5-1.5,1.1-2.9,1.6-4.4C50.1,2.6,53,2.8,55.9,3"/>
			<path id="Fill-24" class="st5" d="M26.2,14.3c1.4,5.7,2.8,11.5,4.3,17.2c-0.2,0.1-0.3,0.3-0.5,0.4c-4.7-5.6-10-10.2-17.2-12.1
				c1.8-1.6,3.6-3.1,5.5-4.7l0.3-0.4l-0.1,0c0.5-0.3,1.1-0.6,1.6-0.9c2-1.2,4-1.4,5.9,0.2l0,0C26,14.1,26.1,14.2,26.2,14.3"/>
			<path id="Fill-26" class="st2" d="M2.7,37.7c3,0.6,6.1,1.1,9.1,1.7c3.9,0.8,6.6,3.1,8.4,6.8C13.5,45.6,7.3,47.7,1,48.4
				c0-1.2-0.1-2.4,0.1-3.5C1.5,42.5,2.1,40.1,2.7,37.7"/>
			<path id="Fill-28" class="st5" d="M93,31.4c-2.3,3.1-5.7,3.7-9.2,4.5c-2.5,0.5-4.9,1.2-7.3,1.8l-0.1-0.1c0.4-0.9,0.8-1.7,1.2-2.6
				c2-4.1,4.1-8.2,6.2-12.3c0.8,0.4,1.6,0.7,2.3,1.1c0.9,0.6,1.8,1.2,2.8,1.9C90.2,27.6,91.6,29.5,93,31.4"/>
			<path id="Fill-30" class="st2" d="M94.2,67.1c-3.3-0.2-6.4-0.7-9.5-2.1c-2.2-1.1-4.7-1.4-7.6-2.2c1.8-1.1,3.3-2.3,5-2.9
				c4.6-1.4,9.3-2.5,14-3.7C95.5,59.8,94.8,63.5,94.2,67.1"/>
			<path id="Fill-32" class="st3" d="M68.9,6.1c-1.4,3.2-2.4,6.6-2,10.1c0.5,3.7-0.2,7-3.2,9.6c-0.7,0.6-1.2,1.5-1.9,2.6
				c-0.7-4.3-1.1-8.2-0.4-12.1c0.8-3.9,2.1-7.7,3.2-11.5L68.9,6.1z"/>
			<path id="Fill-34" class="st4" d="M21.2,89.7c1.8,0.4,3.6,0.8,5.4,1.1c3.1,0.6,6.1,0.8,8.7-1.5c0.5-0.5,1.5-0.5,2.2-0.7
				c3.3-0.9,4.7-2.6,4.7-6.1c0-2-0.4-3.9-0.7-5.9c1.2,0.4,2.4,0.7,3.6,1.1c0.9,7.2-2.8,12.1-8.1,16.3c-1,0.8-2.3,1.3-3.4,2
				c-3.7-1.7-7.4-3.3-11-5C22.1,90.6,21.7,90.1,21.2,89.7"/>
			<path id="Fill-36" class="st5" d="M11.1,22c4.9,1.6,9.7,3.3,13.1,7.5c1.4,1.7,2.9,3.3,4.4,4.9l0,0c-6-1.9-12-3.9-18-5.8
				c-1-0.3-1.9-1-2.9-1.5C8.4,25.1,9.1,23.1,11.1,22"/>
			<path id="Fill-38" class="st3" d="M68.9,23.8c4-3.2,8-6.3,11.9-9.5c1,0.8,2,1.7,3.1,2.5c-1,2-2,4.1-3,6.1c-0.5,1-1,2-1.5,3.1
				c-1.1-0.2-2.4,0-3.3-0.6C73.8,24,71.5,23.2,68.9,23.8"/>
			<path id="Fill-40" class="st3" d="M44.5,2.8c-0.7,1.6-1.3,3.2-2,4.8c-0.4,0.9-0.7,1.8-1.1,2.7c-0.3,0.8-0.6,1.7-1,2.8
				c-1.5-1.3-3-2.3-4.2-3.6c-1.3-1.3-2.7-1.7-4.4-1.7c-1.3,0-2.7-0.3-4-0.5C32.8,3.8,38.8,3.9,44.5,2.8"/>
			<path id="Fill-42" class="st1" d="M63.4,74.3c2.3-0.8,4.3-0.7,6.2,1c0.7,0.6,2,0.9,3,1c2.6,0.2,5.4,0,8,0.4
				c1.7,0.3,3.4,1.4,5,2.1C82,77.9,79,79.1,76,80.9c-2.2,1.3-4,1-6-0.8c-1.2-1.1-2.3-2.5-3.5-3.7C65.6,75.6,64.4,75,63.4,74.3"/>
			<path id="Fill-44" class="st3" d="M79,12.6c-3.1,2.3-6.2,4.7-9.4,7.1c-0.5-3.5-0.7-6.8,0.7-10.1C70.6,8.9,70.7,8,71,7.2
				C73.7,9,76.3,10.8,79,12.6"/>
			<path id="Fill-46" class="st1" d="M4.8,69.3c3,0.1,6-0.1,9,0.3c1.9,0.2,3.7,1.2,5.6,1.8c1.1,0.3,2.2,0.6,3.5,1
				c-5,1-10.4,0-13.9,4.7C7.6,74.5,6.2,71.9,4.8,69.3"/>
			<path id="Fill-48" class="st4" d="M47,98.5c0.5-3.2,0.9-6.4,1.4-9.6c1.2-0.3,2.3-0.5,3.5-0.8c1.5,3.3,2.9,6.5,4.4,9.8
				C53.2,98.1,50.1,98.3,47,98.5"/>
			<path id="Fill-50" class="st1" d="M22.8,75.2c2.1-0.6,4.3-1.1,6.4-1.9c2.7-1,6.2-0.4,8.5,1.8c-3.6,2.8-7.4,3.2-11.5,1.3
				C25.1,75.9,23.9,75.6,22.8,75.2"/>
			<path id="Fill-52" class="st5" d="M96,41.3c-0.2,0-0.6,0-0.7-0.1c-2.4-2-5.2-2.2-8.2-2.2c-1.5,0-3.1,0.2-4.6,0.4
				c-1.5,0.2-3.1,0.5-4.6,0.8c1.7-1.8,4-1.4,6-1.8c3.8-0.8,7.5-1.6,10.2-4.7C94.8,36.2,95.4,38.7,96,41.3"/>
			<path id="Fill-54" class="st4" d="M37.1,97c3.4-2.3,6.2-5.3,8.7-8.7c-0.5,3.4-1,6.8-1.4,10.2C42,98,39.6,97.5,37.1,97"/>
			<path id="Fill-56" class="st3" d="M88.8,25.8c-0.9-0.6-1.8-1.3-2.8-1.9c-0.7-0.4-1.5-0.8-2.3-1.1c0.6-1.3,1.2-2.7,1.8-4
				C87.7,20.6,89,22.9,88.8,25.8"/>
			<path id="Fill-58" class="st3" d="M26,14c-1.9-1.6-3.9-1.4-5.9-0.2c-0.5,0.3-1,0.6-1.6,0.9c1.3-2.8,3.7-4.4,6.2-6
				C25.1,10.5,25.6,12.3,26,14"/>
			<path id="Fill-60" class="st6" d="M20.4,89.3c0.3,0.1,0.5,0.3,0.8,0.4C21,89.5,20.7,89.4,20.4,89.3"/>
			<path id="Fill-62" class="st7" d="M85.5,78.8c0.1,0.1,0.3,0.2,0.4,0.2C85.8,78.9,85.7,78.9,85.5,78.8"/>
			<path id="Fill-64" class="st8" d="M18.6,14.7l-0.3,0.4L18.6,14.7z"/>
			<path id="Fill-66" class="st3" d="M44.5,29.5c-4.3-2.3-8.5-4.5-12.6-6.7c-0.4-0.2-1-0.6-1.1-1c-1.1-3.8-2-7.7-3-11.5
				c3.4-0.6,6.1-0.1,8.4,2.4c1.9,2,4.1,3.7,6.2,5.6c0.6,0.6,1.2,1.2,1.7,1.9C46.5,23.5,46.5,24.9,44.5,29.5"/>
			<path id="Fill-68" class="st5" d="M68.9,23.8c2.6-0.6,4.9,0.1,7.1,1.6c0.9,0.6,2.2,0.4,3.3,0.6c-2.4,4.4-4.7,8.8-7.1,13.1
				c-3.8,0.2-7.2-0.9-10.3-2.9c-0.1-4,2.4-6.8,4.5-9.8C67.2,25.5,68.1,24.7,68.9,23.8"/>
			<path id="Fill-70" class="st2" d="M47.3,39.6c0.9,1.3,1.2,2.7,0.8,4.3c-1.2,5.4-2.3,10.8-3.4,16.2c-0.3,0-0.6,0.1-0.9,0.1
				c-2.3-6.1-4.6-12.2-6.9-18.4c0.8-1.9,2-3.4,4.3-3.3c1.9,0.1,3.8,0.5,5.8,0.7l0,0C47.1,39.3,47.2,39.4,47.3,39.6"/>
			<path id="Fill-72" class="st2" d="M21.3,42.4c2.6,0.5,5.2,1,7.8,1.5c4.3,0.8,7.1,3.2,8.5,7.4c0.6,1.8,1.4,3.6,2.2,5.3
				c-2.1-0.3-3,0.9-3.6,2.7c-0.3,0.9-1,1.6-1.5,2.5c-0.5-1.3-1-2.6-1.6-3.8c-1.5-3.2-3.6-5.8-6.4-8.2c-2.2-1.9-3.7-4.7-5.5-7.1
				C21.1,42.5,21.2,42.4,21.3,42.4"/>
			<path id="Fill-74" class="st2" d="M46,66.7c0.2-1.9,0.3-3.8,0.7-5.6c1.1-4.7,2.4-9.3,3.7-14.5c1.6,4.8,4.2,8.8,4.6,13.6
				c0.2,1.8,0.3,3.6,0.3,5.4c0,0.6-0.4,1.2-0.6,1.8c-0.1,0.1-0.2,0.3-0.3,0.4l0,0c-2.9,1.7-5.6,1.1-8.1-0.7l0,0
				C46.2,67,46.1,66.9,46,66.7"/>
			<path id="Fill-76" class="st5" d="M46.9,31.1c4.8,0.1,6.2-0.9,8.1-5.5c1-2.4,1.4-2.6,3.7-1.4c0.2,3.5,0.5,7,0.7,10.5
				c-2.6,0.5-5.5,4.2-5.9,7.3c-0.1,0.9-0.8,1.7-1.2,2.5c-1.8-4-3.5-8.1-5.3-12.1C46.8,32.1,46.9,31.6,46.9,31.1"/>
			<path id="Fill-78" class="st5" d="M47,39.2c-1.9-0.3-3.8-0.6-5.8-0.7c-2.3-0.2-3.5,1.4-4.3,3.3c-3.5-4.7-4.1-10.3-5.1-15.7
				c4.7,1.2,8.7,3.7,12.1,6.8C45.5,34.3,46,37,47,39.2"/>
			<path id="Fill-80" class="st2" d="M52.3,44.6c0.4-0.8,1.1-1.7,1.2-2.5c0.4-3.1,3.3-6.8,5.9-7.3c-0.3,1.8-0.5,3.7-0.8,5.5
				c-0.5,2.6-0.4,5.1,0.5,7.7c1.9,5.8,1.7,7.2-1,12.3C56.2,55.2,54.2,49.9,52.3,44.6"/>
			<path id="Fill-82" class="st1" d="M59.7,74.1c-1.6,1.1-3.2,2.2-4.7,3.3c0.6-2.7,0.9-5.6,1.8-8.2c1.6-4.3,3.6-8.4,5.5-12.5
				c2.2-0.6,3.1-0.1,3.2,1.7c0.1,0.7,0,1.4,0,2.2c0.1,1.1,0.2,2.3,0.3,3.4c-1.5,2.4-3.1,4.8-4.6,7.2C60.7,72,60.2,73.1,59.7,74.1"/>
			<path id="Fill-84" class="st1" d="M46.2,67.2c2.6,1.9,5.2,2.4,8.1,0.7c-0.8,4.1-1.3,8.3-2.5,12.3c-0.8,2.8-0.7,5.3,0,7.9
				c-1.2,0.3-2.3,0.5-3.5,0.8c-0.2-4.9-0.3-9.7-0.7-14.6C47.5,71.9,46.7,69.6,46.2,67.2"/>
			<path id="Fill-86" class="st2" d="M61.9,36.2c3.1,2,6.5,3.1,10.3,2.9c-0.9,2.1-2.6,3.4-4.5,4.5c-2.1,1.2-4,2.7-6.1,4.1
				C59.9,44.1,61,40.2,61.9,36.2"/>
			<path id="Fill-88" class="st1" d="M34.6,61.7c0.5-0.8,1.2-1.6,1.5-2.5c0.6-1.8,1.6-2.9,3.6-2.7c2.2,3.4,3.2,7.3,3.7,11.3l0,0
				C40.1,66.3,37,64.6,34.6,61.7"/>
			<path id="Fill-90" class="st2" d="M65.9,63.9c-0.1-1.1-0.2-2.3-0.3-3.4c0-0.7,0-1.4,0-2.2c-0.1-1.8-1-2.3-3.2-1.7
				c0.5-0.7,0.8-1.6,1.5-1.9c2.6-1.4,5.2-2.6,8.1-3.6C71,56,68.6,60,65.9,63.9"/>
			<path id="Fill-92" class="st9" d="M21,42.6c-0.1-0.2-0.2-0.3-0.3-0.5c0.2,0.1,0.4,0.1,0.6,0.2C21.2,42.4,21.1,42.5,21,42.6"/>
			<path id="Fill-94" class="st8" d="M26.2,14.3c-0.1-0.1-0.2-0.2-0.3-0.3C26,14.1,26.1,14.2,26.2,14.3"/>
			<path id="Fill-96" class="st10" d="M43.4,67.9c0.1,0,0.1,0.1,0.2,0.1c0,0-0.1,0-0.1,0C43.4,68,43.4,67.9,43.4,67.9L43.4,67.9z"/>
			<path id="Fill-98" class="st10" d="M54.3,67.9c0.1-0.1,0.2-0.3,0.3-0.4C54.5,67.7,54.4,67.8,54.3,67.9"/>
			<path id="Fill-100" class="st10" d="M46,66.7c0.1,0.1,0.2,0.3,0.3,0.4C46.2,67,46.1,66.9,46,66.7"/>
			<path id="Fill-102" class="st11" d="M68.1,65.7c0,0-0.1,0.1-0.1,0.1c0,0-0.1,0-0.1,0C68,65.8,68.1,65.7,68.1,65.7L68.1,65.7"/>
			<path id="Fill-104" class="st12" d="M28.5,34.4c0.1,0.1,0.1,0.1,0.2,0.2C28.6,34.5,28.5,34.5,28.5,34.4L28.5,34.4z"/>
			<path id="Fill-106" class="st13" d="M47.3,39.6c-0.1-0.1-0.2-0.3-0.3-0.4C47.1,39.3,47.2,39.4,47.3,39.6"/>
			<path id="Fill-108" class="st12" d="M76.5,37.7c-0.1,0-0.2,0.1-0.2,0.1c0-0.1,0.1-0.2,0.1-0.2L76.5,37.7z"/>
		</g>
	</g>
</g>
</svg>
