<?xml version="1.0" encoding="utf-8"?>
<!-- Generator: Adobe Illustrator 21.1.0, SVG Export Plug-In . SVG Version: 6.00 Build 0)  -->
<svg version="1.1" id="Layer_1" xmlns="http://www.w3.org/2000/svg" xmlns:xlink="http://www.w3.org/1999/xlink" x="0px" y="0px"
	 viewBox="0 0 286 66.5" style="enable-background:new 0 0 286 66.5;" xml:space="preserve">
<style type="text/css">
	.st0{fill:#333E47;}
	.st1{fill:#B3DFFF;}
	.st2{fill:#73C3FF;}
	.st3{fill:#0B8FFF;}
	.st4{fill:#D2EEFF;}
	.st5{fill:#36A9FF;}
	.st6{fill:#D9A02B;}
	.st7{fill:#CD8104;}
	.st8{fill:#29D34D;}
	.st9{fill:#C5CC08;}
	.st10{fill:#CD8001;}
	.st11{fill:#C5CC09;}
	.st12{fill:#5AA104;}
	.st13{fill:#5AA103;}
</style>
<title>Untitled-1</title>
<g>
	<path class="st0" d="M63.3,44c0.7,0.5,0.7,1,0.1,1.5c-2.1,0.1-4.1-0.3-6.1-1c-1.5-0.6-3-1-4.5-1.4c-0.9-0.3-2-0.3-2.9,0
		C48.1,44,46.4,45,44.8,46c-0.3,0.2-0.6,0.4-0.8,0.7c1.2,0.3,2.5,0.2,3.2,0.9c1.3,1.2,2.8,1.1,4.3,1c3.1-0.2,6,0.4,8.3,2.6l-0.2,1.4
		l-1.6-0.6l-0.3-0.2l0,0c-1-0.6-2.2-1.1-3.3-1.4c-1.7-0.3-3.5-0.1-5.2-0.3c-0.7,0-1.4-0.2-2-0.6c-1.1-1-2.7-1.3-4.1-0.7
		c-0.2,0.1-0.6,0.1-0.6,0.3c-0.8,1.6-1.5,3.3-2,5c-0.4,1.7,1.5,3.4,3.4,3.8c3,0.5,6-0.1,8.9-0.8c0.4,0,0.9,0,1.3,0.1l-0.3,1.3
		c-0.3,0-0.6,0.1-0.8,0.2c-2.9,0.8-5.9,1.1-8.9,0.8c-4.3-0.6-6.4-4.4-4.6-8.2c0.4-0.9,0.8-1.9,1.2-2.8c0.3-0.7,0.6-1.4,1-2
		c1-1.6,2-3.2,3.1-4.7c1.9-2.5,3.3-5.4,4-8.4c-1.8,0.6-3.6,1.4-5.4,2.4c-0.4,0.2-0.7,0.8-1,1.3c-1.2,2.8-2.6,5.5-3.6,8.3
		c-0.5,1.8-0.9,3.6-1.2,5.4c-0.1,1-0.3,2-0.6,2.9c-0.5,1.1-0.4,2.4,0.1,3.5c1,2.4,2.2,4.7,3.2,7c-0.5,1.1-0.8,1.1-1.9,0.2l-2.9-6.5
		c-0.5-1.7-0.5-3.5,0-5.2c0.8-2.7,1.1-5.4,1.7-8.1l0,0l0.2-0.3c0.2-0.4,0.4-0.8,0.4-1.2c0-1.2-0.1-2.4-0.2-3.6c-0.3-3.2-1.9-5.8-3-9
		c-1,3.5-1.8,6.5-2.5,9.6c-0.2,1.2-0.4,2.4-0.4,3.7l0.2,0.3l0,0c0.4,1.6,0.7,3.1,0.9,4.8c0.3,3.2,0.3,6.4,0.5,9.6l-0.9,6.3
		c-0.8,1-1.1,1-1.7,0l0.9-6.8c-1.6,2.2-3.5,4.2-5.8,5.7c-0.3,0.1-0.5,0.2-0.8,0.2c-0.9,0.4-1.5,0.1-1.5-1c0.8-0.4,1.5-0.8,2.2-1.3
		C29.1,59,31.6,55.8,31,51c0.5-2.3-0.7-4.6-2.8-5.5c-1.7-0.9-3.2-2.2-4.8-3.3c-0.6-0.5-1.3-0.8-2-1c-1.9-0.2-3.6-1.2-4.8-2.6
		c-0.5-0.7-1.3-1-2.2-0.9L2.3,39c-0.8-0.4-0.9-1-0.3-1.7l1.9-0.2c3.7-0.3,7.3-0.6,11-0.9c1.1-0.1,2.2,0.4,2.8,1.2
		c1,1.3,2.6,2.1,4.2,2c-0.6-1.2-1.3-2.4-2.1-3.4c-1.6-1.8-3.1-3.7-5.7-4.1c-1.2-0.2-2.4-0.2-3.6,0c-2.9,0.4-5.8,0.9-8.8,1.4
		c-0.9-0.6-1-0.9-0.1-1.7c4.2-0.5,8.3-1.8,12.7-1.4c-1-2.3-3.1-3.9-5.5-4.5c-2-0.4-4-0.8-6-1.1c-0.7-1.1-0.5-1.4,0.7-1.5L24,27.9
		c-0.7-1.5-1.1-3.1-3.1-3.3c-0.7-0.2-1.4-0.4-2-0.8c-1-0.5-2-0.9-3.1-1.3c-3.6-0.9-7.3-1.7-10.6-3.5c-0.5-1.3-0.3-1.5,1.1-1.5
		c0.6,0.4,1.2,0.7,1.9,1c3.9,1.3,7.9,2.6,11.9,3.8l0.1,0.1L20,22.4c-1-1.1-2-2.1-2.9-3.3c-2.2-2.8-5.4-3.9-8.6-4.9l-0.2-1.3l1.4-0.1
		c4.7,1.3,8.2,4.3,11.3,8l0.3-0.3L18.5,9.2L18.3,9l0,0l-0.8-3.5c0.2-1.6,0.5-1.7,2-1c0.9,0.2,1.8,0.3,2.7,0.3c1.1,0,2.1,0.4,2.9,1.2
		c0.8,0.8,1.8,1.5,2.8,2.4c0.3-0.8,0.4-1.3,0.7-1.9s0.5-1.2,0.7-1.8l1.3-3.2c0.7-1,1-1.1,1.8-0.2c-0.3,1-0.7,1.9-1,2.9
		C30.7,5.8,30,7.4,29.5,9c-0.1,0.3-0.1,0.7,0.1,1c1,1.3,2.2,2.6,3.3,3.9l0.5-0.9c2-3.5,3.6-7.3,4.7-11.2c0.8-0.6,1.4-0.7,1.7,0.4
		c-0.2,0.4-0.4,0.8-0.5,1.2c-0.8,3.7-2.7,6.9-4.3,10.2c-1.1,2.2-1.9,4.5-2.8,6.7c0,0.3,0,0.6,0.1,0.9c1.2,2.7,2.3,5.3,3.5,8
		l3.8,10.3c1.8-3.3,1.9-4.3,0.7-8.1c-0.5-1.6-0.7-3.4-0.3-5.1c0.2-1.2,0.4-2.4,0.6-3.7l-0.5-6.9c0.1-2.5,0.2-4.9,0.6-7.4
		c0.5-2,1.1-4,1.8-5.9C43.1,1.9,43.6,2,43.9,3c-0.7,2.5-1.6,5-2.1,7.6c-0.4,2.7-0.3,5.4,0.2,8c0.4-0.6,0.8-1.2,1.3-1.7
		c2-1.7,2.4-3.9,2.1-6.4c-0.2-2.3,0.3-4.6,1.3-6.7c0.5-0.2,1.1,0.1,1.3,0.6c0,0,0,0.1,0,0.1c-0.1,0.5-0.3,1.1-0.4,1.6
		c-0.8,2.1-0.9,4.4-0.4,6.7l6.2-4.7c1-0.2,1.4,0.2,1.2,1.2l-7.9,6.2c-0.6,0.5-1.1,1.1-1.7,1.7c-1.4,1.9-3.1,3.8-3,6.5
		c-0.6,2.6-1.4,5.2-0.2,7.6c1.4-0.9,2.7-1.9,4-2.7c1.3-0.6,2.4-1.7,3-3l4.7-8.7l1-2l2-4c0.8,0,1.2,0.4,1.1,1.2l-1.2,2.6
		c-1.3,2.7-2.7,5.4-4.1,8.1c-0.3,0.6-0.5,1.1-0.8,1.7l-0.1,0.2l0.2-0.1c1.6-0.4,3.2-0.9,4.8-1.2c2.3-0.5,4.6-0.9,6-3
		c1.3,0.2,1.5,0.6,0.8,1.5c-1.8,2.1-4.2,2.6-6.7,3.1c-1.4,0.3-2.9,0-4,1.2c-2.4,1.4-4.7,2.9-7.1,4.3c-1.2,0.6-2.1,1.7-2.4,3
		c2.2-0.7,4.5-1.4,6.8-2c1.8-0.5,3.7-0.7,5.5-1.3c3.1-1,6.2-2.1,9.3-3.1c1,0.6,1,0.9,0.2,1.7L64,29.1c-4,1.2-7.9,2.6-12,3.7
		c-0.9,0.2-1.6,0.8-1.9,1.7c-1.2,2.5-2.5,5-3.7,7.6c-0.2,0.3-0.3,0.7-0.4,1l-0.1,0c0,0,0.1,0,0.1,0c0,0,0-0.1,0.1-0.1
		c1.8-1.2,3.6-2.4,5.5-3.5c1.4-0.9,2.9-1.7,4.4-2.2c3-1,6.1-1.6,9.2-2.4l0.7,1l-1.3,0.9c-3.1,0.8-6.2,1.5-9.2,2.4
		c-1.2,0.5-2.3,1.1-3.3,1.9c1.7,0.3,3.4,0.8,5,1.4C58.9,43.5,61.1,44,63.3,44z M29.8,44.5C29.8,44.6,29.8,44.6,29.8,44.5
		C29.8,44.6,29.8,44.6,29.8,44.5L29.8,44.5c-0.3-2.6-1.1-5.2-2.5-7.4c-0.5-1.2-1.1-2.3-1.4-3.5C25.2,31,23,29,20.3,28.7l-5.1-1
		l-0.4-0.1l0.2,0.3c1.2,1.6,2.2,3.4,3.6,4.7c1.8,1.5,3.3,3.3,4.3,5.5c0.4,0.8,0.7,1.7,1.1,2.5C25.6,42.2,27.6,43.6,29.8,44.5
		L29.8,44.5z M32.2,25.6L32.2,25.6c-0.7-1.4-1-3.2-2-4.2c-2.3-2.1-5-3.7-8-4.5c0.7,3.6,1.1,7.2,3.4,10.3l4.6,12.1l0.6-0.1
		c0.8-3.6,1.5-7.1,2.3-10.7c0.3-1,0.1-2-0.5-2.8L32.2,25.6z M30.6,19.2c1.3-3,1.3-4-0.3-6.2c-0.3-0.5-0.7-0.9-1.1-1.2
		c-1.4-1.2-2.9-2.3-4.1-3.7c-1.5-1.7-3.3-2-5.6-1.6c0.7,2.5,1.3,5.1,2,7.6c0.1,0.3,0.5,0.5,0.8,0.7C25,16.3,27.8,17.8,30.6,19.2z"/>
	<path class="st1" d="M2.3,39l12-1.2c0.8-0.2,1.7,0.2,2.2,0.9c1.2,1.5,2.9,2.4,4.8,2.6c0.7,0.2,1.4,0.5,2,1c1.6,1.1,3.1,2.3,4.8,3.3
		c2.2,0.9,3.3,3.2,2.8,5.5l-2.4-0.7c-1.2-2.9-4.2-4.6-7.2-4.1c-2.9,0.3-5.8-0.2-8.4-1.4c-3.1-1.3-6.2-1-9.4-0.9
		C2.8,42.4,2,40.9,2.3,39z"/>
	<path class="st0" d="M3.6,44c3.2-0.2,6.3-0.4,9.4,0.9c2.6,1.2,5.5,1.7,8.4,1.4c3.1-0.5,6.1,1.2,7.2,4.1c0.2,1.3,0.4,2.6,0.4,3.9
		c0,2.3-0.9,3.4-3.1,4c-0.5,0.1-1,0.2-1.5,0.5c-1.7,1.5-3.7,1.3-5.8,1c-1.2-0.2-2.4-0.5-3.6-0.8l0,0l-0.5-0.2
		c-0.5-0.2-0.9-0.5-1.4-0.7s-1.5-0.4-1.1-1.3s1.1-0.4,1.8-0.2c1.5,0.5,3,1,4.5,1.4c1.8,0.5,3.7,0.8,5.3-0.7c0.4-0.3,1-0.3,1.6-0.5
		c1.3-0.2,2.2-1.3,2.1-2.5c0-1.7,0.1-3.5-1.4-4.9c-1.5-1.4-3.7-1.9-5.6-1.2c-1.4,0.5-2.8,0.8-4.2,1.2c-1.6,0.2-3.2,0.3-4.9,0.5
		c-1.1,0.1-2.1,0.7-2.7,1.6c-0.2,0.3-0.8,0.4-1.3,0.5l-0.3-1.4c2.3-3.1,5.9-2.5,9.2-3.1c-0.9-0.2-1.6-0.4-2.3-0.6
		c-1.2-0.5-2.4-0.9-3.7-1.2c-2-0.2-4-0.2-6-0.2C3.4,45.3,3.1,44.8,3.6,44z"/>
	<path class="st2" d="M65.3,35c-3.1,0.8-6.2,1.5-9.2,2.4c-1.5,0.6-3,1.3-4.4,2.2c-1.9,1.1-3.7,2.3-5.5,3.5l0,0
		c0.1-0.3,0.3-0.7,0.4-1c1.2-2.5,2.5-5,3.7-7.6c0.3-0.8,1-1.5,1.9-1.7c4-1.1,8-2.4,12-3.7l0.7-0.2L65.3,35z"/>
	<path class="st1" d="M59.7,51.1c-2.4-2.1-5.2-2.8-8.3-2.6c-1.5,0.1-2.9,0.2-4.3-1c-0.7-0.6-2.1-0.6-3.2-0.9
		c0.3-0.3,0.5-0.5,0.8-0.7c1.6-1.1,3.4-2,5.1-2.8c0.9-0.3,2-0.3,2.9,0c1.5,0.3,3.1,0.8,4.5,1.4c1.9,0.7,4,1.1,6.1,1
		c-0.2,0.4-0.4,0.9-0.6,1.3c-0.5,0.8-1,1.5-1.6,2.3S60.2,50.4,59.7,51.1z"/>
	<path class="st2" d="M1.9,33.3c2.9-0.5,5.8-1,8.8-1.4c1.2-0.2,2.4-0.2,3.6,0c2.5,0.4,4.1,2.4,5.7,4.1c0.8,1.1,1.5,2.2,2.1,3.4
		c-1.7,0.1-3.2-0.7-4.2-2c-0.6-0.9-1.7-1.4-2.8-1.2c-3.7,0.3-7.3,0.6-11,0.9L2,37.4L1.9,33.3z"/>
	<path class="st2" d="M64.6,27.2c-3.1,1-6.2,2.1-9.3,3.1c-1.8,0.5-3.7,0.8-5.5,1.3c-2.3,0.6-4.5,1.3-6.8,2c0.3-1.3,1.2-2.4,2.4-3
		c2.4-1.4,4.8-2.9,7.1-4.3c1-0.2,2-0.4,3-0.5c1-0.1,2-0.2,3-0.3c1.9,0,3.8,0.1,5.4,1.4c0.1,0.1,0.3,0,0.5,0L64.6,27.2z"/>
	<path class="st3" d="M32.2,20.3c0.9-2.2,1.7-4.5,2.8-6.7c1.6-3.3,3.5-6.6,4.3-10.2c0.1-0.4,0.3-0.8,0.5-1.2l2.5,0.3
		c-0.7,1.9-1.3,3.9-1.8,5.9c-0.3,2.4-0.5,4.9-0.6,7.4c-1.5-0.8-1.8-0.7-2.4,0.9C36.2,19.7,35.3,20.3,32.2,20.3z"/>
	<path class="st4" d="M40.6,48.6c-0.4,1-0.8,1.9-1.2,2.8c-1.8,3.8,0.3,7.6,4.6,8.2c3,0.3,6,0,8.9-0.8c0.3-0.1,0.5-0.1,0.8-0.2
		c-1.2,0.7-2.4,1.4-3.6,2c-3.2,1.3-6.3,3.1-9.8,3.5c-1.1-2.3-2.2-4.7-3.2-7c-0.5-1.1-0.6-2.4-0.1-3.5c0.3-1,0.5-1.9,0.6-2.9
		L40.6,48.6z"/>
	<path class="st5" d="M5.1,19.1c3.3,1.8,7,2.6,10.6,3.5c1.1,0.3,2.1,0.8,3.1,1.3c0.6,0.4,1.3,0.6,2,0.8c2,0.2,2.4,1.7,3.1,3.3
		L3.7,23.1L5.1,19.1z"/>
	<path class="st3" d="M38.1,1.7c-1.1,3.9-2.7,7.7-4.7,11.2l-0.5,0.9c-1.1-1.3-2.2-2.6-3.3-3.9c-0.2-0.3-0.2-0.7-0.1-1
		c0.5-1.6,1.2-3.1,1.8-4.7c0.4-1,0.7-1.9,1-2.9L38.1,1.7z"/>
	<path class="st5" d="M18.5,9.2l2.8,11.3L21,20.8c-3.1-3.7-6.6-6.7-11.3-8l3.6-3.1l0.2-0.3l0,0c0.3-0.2,0.7-0.4,1-0.6
		C15.6,8,17.2,8,18.3,9l0,0L18.5,9.2z"/>
	<path class="st2" d="M3,24.7c2,0.4,4,0.7,6,1.1c2.5,0.5,4.5,2.2,5.6,4.5c-4.4-0.4-8.5,0.9-12.7,1.4c0-0.8,0-1.5,0-2.3
		C2.2,27.8,2.6,26.2,3,24.7z"/>
	<path class="st5" d="M62.6,20.5c-1.5,2.1-3.8,2.5-6,3c-1.6,0.4-3.2,0.8-4.8,1.2l-0.1-0.1c0.3-0.6,0.5-1.1,0.8-1.7
		c1.3-2.7,2.7-5.4,4.1-8.1c0.5,0.2,1,0.5,1.5,0.8s1.2,0.8,1.8,1.2L62.6,20.5z"/>
	<path class="st2" d="M63.3,44c-2.2,0-4.3-0.5-6.2-1.4c-1.6-0.6-3.3-1.1-5-1.4c1-0.7,2.1-1.4,3.3-1.9c3-0.9,6.1-1.6,9.2-2.4L63.3,44
		z"/>
	<path class="st3" d="M46.7,3.8c-1,2.1-1.5,4.4-1.3,6.7c0.3,2.5-0.1,4.6-2.1,6.4c-0.5,0.5-0.9,1.1-1.3,1.7c-0.6-2.6-0.6-5.3-0.2-8
		C42.2,8,43.1,5.5,43.9,3L46.7,3.8z"/>
	<path class="st4" d="M15.2,58.9c1.2,0.2,2.4,0.5,3.6,0.8c2,0.4,4,0.6,5.8-1c0.5-0.2,0.9-0.4,1.5-0.4c2.2-0.6,3.1-1.7,3.1-4
		c0-1.3-0.3-2.6-0.4-3.9L31,51c0.6,4.8-1.9,8-5.3,10.7c-0.7,0.5-1.5,0.9-2.2,1.3c-2.4-1.1-4.8-2.2-7.3-3.3
		C15.8,59.5,15.5,59.2,15.2,58.9z"/>
	<path class="st5" d="M8.5,14.2c3.2,1,6.4,2.2,8.6,4.9c0.9,1.1,1.9,2.2,2.9,3.3l0,0c-4-1.3-7.9-2.5-11.9-3.9c-0.7-0.3-1.3-0.6-1.9-1
		C6.7,16.3,7.2,15,8.5,14.2z"/>
	<path class="st3" d="M46.7,15.5l7.9-6.2l2,1.6l-2,4l-1,2c-0.7,0-1.5-0.1-2.2-0.4C50,15.5,48.3,15.1,46.7,15.5z"/>
	<path class="st3" d="M30.6,1.6l-1.3,3.2c-0.2,0.6-0.5,1.2-0.7,1.8s-0.4,1.1-0.7,1.9c-1-0.9-2-1.6-2.8-2.4c-0.8-0.8-1.8-1.2-2.9-1.2
		c-0.9-0.1-1.8-0.2-2.7-0.3C22.8,2.3,26.8,2.3,30.6,1.6z"/>
	<path class="st1" d="M43,48.8c1.4-0.6,3-0.4,4.1,0.7c0.6,0.4,1.3,0.6,2,0.6c1.8,0.1,3.5,0,5.2,0.3c1.2,0.3,2.3,0.8,3.3,1.4
		c-2.3-0.6-4.4,0.2-6.3,1.4c-1.3,0.9-2.9,0.6-3.9-0.5c-0.8-0.8-1.5-1.7-2.3-2.4C44.4,49.7,43.7,49.2,43,48.8z"/>
	<path class="st3" d="M53.3,8.1l-6.2,4.7c-0.5-2.2-0.3-4.5,0.4-6.7c0.2-0.5,0.3-1.1,0.4-1.6L53.3,8.1z"/>
	<path class="st1" d="M4.3,45.5c2,0,4,0,6,0.2c1.3,0.3,2.5,0.7,3.7,1.2c0.7,0.2,1.4,0.4,2.3,0.6c-3.3,0.6-6.9,0-9.2,3.1L4.3,45.5z"
		/>
	<path class="st4" d="M32.2,64.8l0.9-6.3l2.3-0.5l2.9,6.5L32.2,64.8z"/>
	<path class="st1" d="M16.2,49.4c1.4-0.4,2.8-0.7,4.2-1.2c1.9-0.7,4.1-0.2,5.6,1.2c-2.1,1.8-5.1,2.1-7.6,0.8
		C17.7,49.9,17,49.6,16.2,49.4z"/>
	<path class="st5" d="M64.5,27c-0.2,0-0.4,0-0.5,0c-1.6-1.3-3.5-1.5-5.4-1.4c-1,0-2,0.1-3,0.3c-1,0.1-2,0.4-3,0.5
		c1.1-1.2,2.6-0.9,4-1.2c2.5-0.5,5-1,6.7-3.1L64.5,27z"/>
	<path class="st4" d="M25.7,63.7c2.2-1.6,4.2-3.5,5.8-5.8l-0.9,6.7L25.7,63.7z"/>
	<path class="st3" d="M59.8,16.8c-0.6-0.4-1.2-0.9-1.8-1.2s-1-0.5-1.5-0.8l1.2-2.6C59.1,13.2,59.9,15,59.8,16.8z"/>
	<path class="st3" d="M18.3,9c-1.1-1-2.7-1-3.9-0.1c-0.3,0.2-0.7,0.4-1,0.6c1-1.7,2.4-3.1,4.1-4L18.3,9z"/>
	<path class="st6" d="M14.7,58.7l0.5,0.2L14.7,58.7z"/>
	<path class="st7" d="M57.7,51.7l0.3,0.2L57.7,51.7z"/>
	<path class="st8" d="M13.5,9.4l-0.2,0.3L13.5,9.4z"/>
	<path class="st3" d="M30.6,19.2c-2.8-1.5-5.6-2.9-8.3-4.4c-0.3-0.2-0.7-0.4-0.8-0.7c-0.7-2.5-1.3-5.1-2-7.6c2.2-0.4,4-0.1,5.6,1.6
		c1.2,1.3,2.7,2.4,4.1,3.7c0.4,0.4,0.8,0.8,1.1,1.2C31.8,15.2,31.9,16.2,30.6,19.2z"/>
	<path class="st5" d="M46.7,15.5c1.6-0.4,3.4,0,4.7,1c0.7,0.3,1.4,0.4,2.2,0.4l-4.7,8.7c-2.4,0.1-4.8-0.6-6.8-1.9
		C42,21,43.6,19.1,45,17.2C45.5,16.6,46.1,16,46.7,15.5z"/>
	<path class="st2" d="M32.4,25.9c0.6,0.8,0.8,1.8,0.6,2.8c-0.8,3.5-1.5,7.1-2.3,10.7l-0.6,0.1l-4.6-12.1c0.5-1.3,1.3-2.3,2.9-2.2
		c1.3,0.1,2.5,0.3,3.8,0.5l0,0L32.4,25.9z"/>
	<path class="st2" d="M15.2,27.7l5.1,1c2.7,0.4,4.9,2.3,5.6,4.9c0.4,1.2,1,2.3,1.4,3.5c-1.4-0.2-2,0.6-2.4,1.8
		c-0.3,0.6-0.6,1.1-1,1.6c-0.4-0.8-0.7-1.7-1.1-2.5c-1-2.1-2.5-3.9-4.2-5.4c-1.5-1.2-2.4-3.1-3.6-4.7L15.2,27.7z"/>
	<path class="st2" d="M31.6,43.8c0.1-1.2,0.2-2.5,0.4-3.7c0.7-3.1,1.6-6.2,2.4-9.6c1.1,3.2,2.7,5.8,3,9c0.1,1.2,0.2,2.4,0.2,3.6
		c-0.1,0.4-0.2,0.8-0.4,1.2L37,44.6l0,0c-1.7,1-3.9,0.8-5.4-0.5l0,0L31.6,43.8z"/>
	<path class="st5" d="M32.2,20.3c3.2,0,4.1-0.6,5.3-3.6c0.7-1.6,0.9-1.7,2.4-0.9l0.5,6.9c-1.7,0.3-3.6,2.8-3.9,4.8
		c-0.2,0.6-0.5,1.2-0.8,1.7c-1.2-2.7-2.3-5.3-3.5-8C32.1,20.9,32.1,20.6,32.2,20.3z"/>
	<path class="st5" d="M32.2,25.6c-1.3-0.2-2.5-0.4-3.8-0.5c-1.5-0.1-2.3,0.9-2.8,2.2c-2.3-3.1-2.7-6.8-3.4-10.3c3,0.8,5.7,2.3,8,4.5
		C31.2,22.4,31.5,24.2,32.2,25.6z"/>
	<path class="st2" d="M35.7,29.2c0.4-0.5,0.6-1.1,0.8-1.7c0.2-2,2.2-4.5,3.9-4.8c-0.2,1.2-0.3,2.5-0.6,3.7c-0.3,1.7-0.2,3.4,0.3,5.1
		c1.3,3.8,1.2,4.8-0.7,8.1L35.7,29.2z"/>
	<path class="st1" d="M40.6,48.6l-3.1,2.2c0.3-1.8,0.7-3.6,1.2-5.4c1.1-2.8,2.4-5.5,3.6-8.3c1.4-0.4,2,0,2.1,1.1c0,0.5,0,1,0,1.4
		c0,0.8,0.1,1.5,0.2,2.3c-1,1.6-2.1,3.1-3.1,4.7C41.2,47.3,40.9,48,40.6,48.6z"/>
	<path class="st1" d="M31.7,44.1c1.5,1.3,3.7,1.5,5.4,0.5c-0.5,2.7-0.9,5.5-1.7,8.1c-0.5,1.7-0.5,3.5,0,5.2l-2.3,0.5
		c-0.2-3.2-0.2-6.4-0.5-9.6C32.4,47.2,32.1,45.6,31.7,44.1z"/>
	<path class="st2" d="M42.1,23.7c2,1.4,4.4,2,6.8,1.9c-0.6,1.3-1.7,2.4-3,3c-1.4,0.8-2.7,1.8-4,2.7C40.7,28.9,41.5,26.3,42.1,23.7z"
		/>
	<path class="st1" d="M24,40.5c0.4-0.5,0.7-1.1,1-1.6c0.4-1.2,1-1.9,2.4-1.8c1.4,2.3,2.2,4.8,2.4,7.4l0,0
		C27.6,43.6,25.6,42.2,24,40.5z"/>
	<path class="st2" d="M44.7,41.9c-0.1-0.8-0.2-1.5-0.2-2.3c0-0.5,0-1,0-1.4c-0.1-1.2-0.7-1.5-2.1-1.1c0.3-0.4,0.5-1,1-1.3
		c1.7-0.9,3.5-1.7,5.4-2.4C48,36.5,46.6,39.4,44.7,41.9z"/>
	<path class="st9" d="M15,27.9l-0.2-0.3l0.4,0.1L15,27.9z"/>
	<path class="st8" d="M18.5,9.2L18.3,9L18.5,9.2z"/>
	<path class="st10" d="M29.8,44.5l0.1,0.1C29.9,44.6,29.9,44.6,29.8,44.5C29.9,44.6,29.9,44.6,29.8,44.5L29.8,44.5z"/>
	<path class="st10" d="M37,44.6l0.2-0.3L37,44.6z"/>
	<path class="st10" d="M31.6,43.8l0.2,0.3L31.6,43.8z"/>
	<path class="st11" d="M46.1,43.1C46.1,43.1,46.1,43.1,46.1,43.1c-0.1,0.1-0.1,0.1-0.1,0.1L46.1,43.1L46.1,43.1z"/>
	<path class="st12" d="M20,22.4l0.1,0.1L20,22.4L20,22.4z"/>
	<path class="st13" d="M32.4,25.9l-0.2-0.3L32.4,25.9z"/>
	<path class="st12" d="M51.7,24.7l-0.2,0.1L51.7,24.7L51.7,24.7z"/>
</g>
<g>
	<path class="st0" d="M86.5,32.6V14.7h10.2v10.2h20.4V30h5v20.4H112V30H96.6v20.4H86.5V32.6z"/>
	<path class="st0" d="M132.4,27.5v-2.6h25.5V30h5.1v20.4h-30.6v-5.1h-5.1v-5.1h5.1v-5.1h20.5V30h-20.5V27.5z M152.9,42.7v-2.5h-15.4
		v5.1h15.4V42.7z"/>
	<path class="st0" d="M173.2,27.5v-2.6h25.5V30h-20.4v5.1h20.4v5.1h5.1v5.1h-5.1v5.1h-30.6v-5.1h25.5v-5.1h-20.4v-5.1h-5.1V30h5.1
		V27.5z"/>
	<path class="st0" d="M209,32.6V14.7h10.2v15.4h10.2v-5.2h15.4V30h-5.1v5.1h-5.2v5.1h5.1v5.1h5.1v5.1h-15.4v-5.1h-5.1v-5.1h-5.1
		v10.2H209V32.6z"/>
	<path class="st0" d="M254.9,27.5v-2.6h25.5V30h5.1v20.4h-30.6v-5.1h-5.1v-5.1h5.1v-5.1h20.4V30h-20.4V27.5z M275.3,42.8v-2.6h-15.4
		v5.1h15.4V42.8z"/>
</g>
</svg>
