<?xml version="1.0" encoding="utf-8"?>
<!-- Generator: Adobe Illustrator 21.1.0, SVG Export Plug-In . SVG Version: 6.00 Build 0)  -->
<svg version="1.1" id="Layer_1" xmlns="http://www.w3.org/2000/svg" xmlns:xlink="http://www.w3.org/1999/xlink" x="0px" y="0px"
	 viewBox="0 0 286 66.5" style="enable-background:new 0 0 286 66.5;" xml:space="preserve">
<style type="text/css">
	.st0{fill:#FFFFFF;}
</style>
<title>Untitled-1</title>
<g>
	<path class="st0" d="M86.5,32.6V14.7h10.2v10.2h20.4V30h5v20.4H112V30H96.6v20.4H86.5V32.6z"/>
	<path class="st0" d="M132.4,27.5v-2.6h25.5V30h5.1v20.4h-30.6v-5.1h-5.1v-5.1h5.1v-5.1h20.5V30h-20.5V27.5z M152.9,42.7v-2.5h-15.4
		v5.1h15.4V42.7z"/>
	<path class="st0" d="M173.2,27.5v-2.6h25.5V30h-20.4v5.1h20.4v5.1h5.1v5.1h-5.1v5.1h-30.6v-5.1h25.5v-5.1h-20.4v-5.1h-5.1V30h5.1
		V27.5z"/>
	<path class="st0" d="M209,32.6V14.7h10.2v15.4h10.2v-5.2h15.4V30h-5.1v5.1h-5.2v5.1h5.1v5.1h5.1v5.1h-15.4v-5.1h-5.1v-5.1h-5.1
		v10.2H209V32.6z"/>
	<path class="st0" d="M254.9,27.5v-2.6h25.5V30h5.1v20.4h-30.6v-5.1h-5.1v-5.1h5.1v-5.1h20.4V30h-20.4V27.5z M275.3,42.8v-2.6h-15.4
		v5.1h15.4V42.8z"/>
</g>
<g>
	<path class="st0" d="M64,43.4c0.7,0.5,0.7,1,0,1.5c-2.1,0.1-4.1-0.3-6.1-1c-1.5-0.6-3-1-4.5-1.4c-0.9-0.3-2-0.3-2.9,0
		c-1.8,0.8-3.5,1.8-5.1,2.8c-0.3,0.2-0.6,0.4-0.8,0.7c1.2,0.3,2.5,0.2,3.2,0.9c1.3,1.2,2.8,1.1,4.3,1c3.1-0.2,6,0.4,8.3,2.6L60.2,52
		l-1.6-0.6l-0.3-0.2l0,0c-1-0.6-2.2-1.1-3.3-1.4c-1.7-0.3-3.5-0.1-5.2-0.3c-0.7,0-1.4-0.2-2-0.6c-1.1-1-2.7-1.3-4.1-0.7
		c-0.2,0.1-0.6,0.1-0.6,0.3c-0.8,1.6-1.5,3.3-2,5c-0.4,1.7,1.5,3.4,3.4,3.8c3,0.5,6-0.1,8.9-0.8c0.4,0,0.9,0,1.3,0.1l-0.3,1.3
		c-0.3,0-0.6,0.1-0.8,0.2c-2.9,0.8-5.9,1.1-8.9,0.8c-4.3-0.6-6.4-4.4-4.6-8.2c0.4-0.9,0.8-1.9,1.2-2.8c0.3-0.7,0.6-1.4,1-2
		c1-1.6,2-3.2,3.1-4.7c1.9-2.5,3.3-5.4,4-8.4c-1.8,0.6-3.6,1.4-5.4,2.4c-0.4,0.2-0.7,0.8-1,1.3c-1.2,2.8-2.6,5.5-3.6,8.3
		c-0.5,1.8-0.9,3.6-1.2,5.4c-0.1,1-0.3,2-0.6,2.9c-0.5,1.1-0.4,2.4,0.1,3.5c1,2.4,2.2,4.7,3.2,7c-0.5,1.1-0.8,1.1-1.9,0.2l-2.9-6.5
		c-0.5-1.7-0.5-3.5,0-5.2c0.8-2.7,1.1-5.4,1.7-8.1l0,0l0.2-0.3c0.2-0.4,0.4-0.8,0.4-1.2c0-1.2-0.1-2.4-0.2-3.6c-0.3-3.2-1.9-5.8-3-9
		c-1,3.5-1.8,6.5-2.5,9.6c-0.2,1.2-0.4,2.4-0.4,3.7l0.2,0.3l0,0c0.4,1.6,0.7,3.1,0.9,4.8c0.3,3.2,0.3,6.4,0.5,9.6l-0.9,6.3
		c-0.8,1-1.1,1-1.7,0l0.9-6.8c-1.6,2.2-3.5,4.2-5.8,5.7c-0.3,0.1-0.5,0.2-0.8,0.2c-0.9,0.3-1.5,0.1-1.5-1c0.8-0.4,1.5-0.8,2.2-1.3
		c3.5-2.7,5.9-5.9,5.3-10.7c0.5-2.3-0.7-4.6-2.8-5.5c-1.7-0.9-3.2-2.2-4.8-3.3c-0.6-0.5-1.3-0.8-2-1c-1.9-0.2-3.6-1.2-4.8-2.6
		c-0.5-0.7-1.3-1-2.2-0.9l-12,1.2c-0.8-0.4-0.9-1-0.3-1.7l1.9-0.2c3.7-0.3,7.3-0.6,11-0.9c1.1-0.1,2.2,0.4,2.8,1.2
		c1,1.3,2.6,2.1,4.2,2c-0.6-1.2-1.3-2.4-2.1-3.4c-1.6-1.8-3.1-3.7-5.7-4.1c-1.2-0.2-2.4-0.2-3.6,0c-2.9,0.4-5.8,0.9-8.8,1.4
		c-0.9-0.6-1-0.9-0.1-1.7c4.2-0.5,8.3-1.8,12.7-1.4c-1-2.3-3.1-3.9-5.5-4.5c-2-0.4-4-0.8-6-1.1C3,23,3.1,22.7,4.3,22.6l20.3,4.8
		c-0.7-1.5-1.1-3.1-3.1-3.3c-0.7-0.2-1.4-0.4-2-0.8c-1-0.5-2-0.9-3.1-1.3c-3.6-0.9-7.3-1.7-10.6-3.5C5.3,17.2,5.5,17,6.9,17
		c0.6,0.4,1.2,0.7,1.9,1c3.9,1.3,7.9,2.6,11.9,3.8l0.1,0.1l-0.1-0.1c-1-1.1-2-2.1-2.9-3.3c-2.2-2.8-5.4-3.9-8.6-4.9l-0.2-1.3
		l1.4-0.1c4.7,1.3,8.2,4.3,11.3,8L22,20L19.1,8.6l-0.2-0.2l0,0l-0.8-3.5c0.2-1.6,0.5-1.7,2-1c0.9,0.2,1.8,0.3,2.7,0.3
		c1.1,0,2.1,0.4,2.9,1.2c0.8,0.8,1.8,1.5,2.8,2.4c0.3-0.8,0.4-1.3,0.7-1.9s0.5-1.2,0.7-1.8L31.2,1c0.7-1,1-1.1,1.8-0.2
		c-0.3,1-0.7,1.9-1,2.9c-0.6,1.6-1.3,3.1-1.8,4.7c-0.1,0.3-0.1,0.7,0.1,1c1,1.3,2.2,2.6,3.3,3.9l0.5-0.9c2-3.5,3.6-7.3,4.7-11.2
		c0.8-0.6,1.4-0.7,1.7,0.4C40.2,2,40,2.4,39.9,2.9c-0.8,3.7-2.7,6.9-4.3,10.2c-1.1,2.2-1.9,4.5-2.8,6.7c0,0.3,0,0.6,0.1,0.9
		c1.2,2.7,2.3,5.3,3.5,8L40.1,39c1.8-3.3,1.9-4.3,0.7-8.1c-0.5-1.6-0.7-3.4-0.3-5.1c0.2-1.2,0.4-2.4,0.6-3.7l-0.5-6.9
		c0.1-2.5,0.2-4.9,0.6-7.4c0.5-2,1.1-4,1.8-5.9c0.8-0.7,1.3-0.5,1.6,0.5c-0.7,2.5-1.6,5-2.1,7.6c-0.4,2.7-0.3,5.4,0.2,8
		c0.4-0.6,0.8-1.2,1.3-1.7c2-1.7,2.4-3.9,2.1-6.4c-0.2-2.3,0.3-4.6,1.3-6.7c0.5-0.2,1.1,0.1,1.3,0.6c0,0,0,0.1,0,0.1
		c-0.1,0.5-0.3,1.1-0.4,1.6c-0.8,2.1-0.9,4.4-0.4,6.7L54,7.5c1-0.2,1.4,0.2,1.2,1.2l-7.9,6.2c-0.6,0.5-1.1,1.1-1.7,1.7
		c-1.4,1.9-3.1,3.8-3,6.5c-0.6,2.6-1.4,5.2-0.2,7.6c1.4-0.9,2.7-1.9,4-2.7c1.3-0.6,2.4-1.7,3-3l4.7-8.7l1-2l2-4
		c0.8,0,1.2,0.4,1.1,1.2L57,14.2c-1.3,2.7-2.7,5.4-4.1,8.1c-0.3,0.6-0.5,1.1-0.8,1.7l-0.1,0.2l0.2-0.1c1.6-0.4,3.2-0.9,4.8-1.2
		c2.3-0.5,4.6-0.9,6-3c1.3,0.2,1.5,0.6,0.8,1.5c-1.8,2.1-4.2,2.6-6.7,3.1c-1.4,0.3-2.9,0-4,1.2c-2.4,1.4-4.7,2.9-7.1,4.3
		c-1.2,0.6-2.1,1.7-2.4,3c2.2-0.7,4.5-1.4,6.8-2c1.8-0.5,3.7-0.7,5.5-1.3c3.1-1,6.2-2.1,9.3-3.1c1,0.6,1,0.9,0.2,1.7l-0.7,0.2
		c-4,1.2-7.9,2.6-12,3.7c-0.9,0.2-1.6,0.8-1.9,1.7c-1.2,2.5-2.5,5-3.7,7.6c-0.2,0.3-0.3,0.7-0.4,1l-0.1,0c0,0,0.1,0,0.1,0
		c0,0,0-0.1,0.1-0.1c1.8-1.2,3.6-2.4,5.5-3.5c1.4-0.9,2.9-1.7,4.4-2.2c3-1,6.1-1.6,9.2-2.4l0.7,1L65,36.3c-3.1,0.8-6.2,1.5-9.2,2.4
		c-1.2,0.5-2.3,1.1-3.3,1.9c1.7,0.3,3.4,0.8,5,1.4C59.5,42.9,61.7,43.4,64,43.4z M30.5,43.9C30.5,44,30.5,44,30.5,43.9
		C30.5,44,30.5,44,30.5,43.9L30.5,43.9c-0.3-2.6-1.1-5.2-2.5-7.4c-0.5-1.2-1.1-2.3-1.4-3.5c-0.7-2.6-2.9-4.5-5.6-4.9l-5.1-1L15.4,27
		l0.2,0.3c1.2,1.6,2.2,3.4,3.6,4.7c1.8,1.5,3.3,3.3,4.3,5.5c0.4,0.8,0.7,1.7,1.1,2.5C26.3,41.7,28.3,43,30.5,43.9L30.5,43.9z
		 M32.8,25L32.8,25c-0.7-1.4-1-3.2-2-4.2c-2.3-2.1-5-3.7-8-4.5c0.7,3.6,1.1,7.2,3.4,10.3l4.6,12.1l0.6-0.1c0.8-3.6,1.5-7.1,2.3-10.7
		c0.3-1,0.1-2-0.5-2.8L32.8,25z M31.2,18.7c1.3-3,1.3-4-0.3-6.2c-0.3-0.5-0.7-0.9-1.1-1.2c-1.4-1.2-2.9-2.3-4.1-3.7
		c-1.5-1.7-3.3-2-5.6-1.6c0.7,2.5,1.3,5.1,2,7.6c0.1,0.3,0.5,0.5,0.8,0.7C25.6,15.7,28.4,17.2,31.2,18.7z"/>
	<path class="st0" d="M4.2,43.4c3.2-0.2,6.3-0.4,9.4,0.9c2.6,1.2,5.5,1.7,8.4,1.4c3.1-0.5,6.1,1.2,7.2,4.1c0.2,1.3,0.4,2.6,0.4,3.9
		c0,2.3-0.9,3.4-3.1,4c-0.5,0.1-1,0.2-1.5,0.5c-1.7,1.5-3.7,1.3-5.8,1c-1.2-0.2-2.4-0.5-3.6-0.8l0,0l-0.5-0.2
		c-0.5-0.2-0.9-0.5-1.4-0.7s-1.5-0.4-1.1-1.3s1.1-0.4,1.8-0.2c1.5,0.5,3,1,4.5,1.4c1.8,0.5,3.7,0.8,5.3-0.7c0.4-0.3,1-0.3,1.6-0.5
		c1.3-0.2,2.2-1.3,2.1-2.5c0-1.7,0.1-3.5-1.4-4.9c-1.5-1.4-3.7-1.9-5.6-1.2c-1.4,0.5-2.8,0.8-4.2,1.2c-1.6,0.2-3.2,0.3-4.9,0.5
		c-1.1,0.1-2.1,0.7-2.7,1.6C9,51.2,8.4,51.3,8,51.4l-0.3-1.4c2.3-3.1,5.9-2.5,9.2-3.1c-0.9-0.2-1.6-0.4-2.3-0.6
		c-1.2-0.5-2.4-0.9-3.7-1.2c-2-0.2-4-0.2-6-0.2C4,44.8,3.7,44.2,4.2,43.4z"/>
	<path class="st0" d="M58.3,51.2l0.3,0.2L58.3,51.2z"/>
	<path class="st0" d="M19.1,8.6l-0.2-0.2L19.1,8.6z"/>
	<path class="st0" d="M20.6,21.9l0.1,0.1L20.6,21.9L20.6,21.9z"/>
	<path class="st0" d="M33.1,25.3L32.8,25L33.1,25.3z"/>
	<path class="st0" d="M52.3,24.1l-0.2,0.1L52.3,24.1L52.3,24.1z"/>
</g>
</svg>
