<?xml version="1.0" encoding="utf-8"?>
<!-- Generator: Adobe Illustrator 21.1.0, SVG Export Plug-In . SVG Version: 6.00 Build 0)  -->
<svg version="1.1" id="Layer_1" xmlns="http://www.w3.org/2000/svg" xmlns:xlink="http://www.w3.org/1999/xlink" x="0px" y="0px"
	 viewBox="0 0 32 32" style="enable-background:new 0 0 32 32;" xml:space="preserve">
<style type="text/css">
	.st0{fill:#050505;}
</style>
<title>tux</title>
<path class="st0" d="M17.7,23c-2.6,1.2-4.9,1.2-6.5,1.1C9.3,24,7.8,23.4,7.1,23c-0.4-0.3-1-0.2-1.3,0.2s-0.2,1,0.2,1.3
	c1.1,0.7,3,1.3,5,1.4c0.3,0,0.7,0,1.1,0c1.7,0,4-0.2,6.3-1.3c0.5-0.2,0.7-0.8,0.4-1.2S18.2,22.8,17.7,23L17.7,23z M27.8,21.7
	c0.1-7.9,0.9-22.8-14.2-21.6C-1.3,1.3,2.7,17,2.4,22.3C2.2,25.1,1.3,28.5,0,32h4c0.4-1.5,0.7-2.9,0.9-4.3c0.2,0.2,0.5,0.3,0.8,0.5
	c0.5,0.3,0.8,0.6,1.3,1c1,0.9,2.1,1.9,4.2,2c0.1,0,0.3,0,0.4,0c2.2,0,3.6-0.9,4.8-1.7c0.6-0.4,1.1-0.7,1.5-0.8
	c1.3-0.4,2.5-1.1,3.3-1.9c0.1-0.1,0.3-0.3,0.4-0.4c0.5,1.7,1.1,3.7,1.9,5.7H32C29.9,28.8,27.8,25.7,27.8,21.7z M3.9,17.4L3.9,17.4
	c-0.1-2.6,1.1-4.7,2.8-4.8s3.1,1.9,3.3,4.5l0,0c0,0.1,0,0.3,0,0.4c-0.5,0.1-1,0.3-1.4,0.6c0,0,0,0,0-0.1l0,0
	c-0.1-1.5-0.9-2.6-1.7-2.5s-1.4,1.4-1.2,2.8l0,0c0.1,0.6,0.2,1.2,0.5,1.6c-0.1,0-0.2,0.2-0.4,0.3c-0.2,0.1-0.3,0.3-0.6,0.4
	C4.4,19.9,4,18.7,3.9,17.4L3.9,17.4z M20.8,23.8c-0.1,1.4-1.8,2.6-3.5,3.2l0,0c-0.7,0.2-1.3,0.6-1.9,1c-1.1,0.7-2.2,1.4-3.8,1.4
	c-0.1,0-0.2,0-0.3,0c-1.5-0.1-2.2-0.7-3.1-1.5c-0.5-0.4-0.9-0.9-1.6-1.2l0,0c-1.3-0.8-2.2-1.7-2.2-2.5c0-0.4,0.2-0.8,0.5-1
	c0.8-0.6,1.4-1,1.8-1.3s0.5-0.4,0.6-0.5s0.1-0.1,0.2-0.2c0.8-0.7,2-2,4-2c1.2,0,2.5,0.5,3.9,1.4c0.7,0.4,1.2,0.6,2,0.9
	c0.5,0.2,1.1,0.4,1.8,0.7l0,0C20,22.3,20.8,22.9,20.8,23.8z M20.4,20.6c-0.1-0.1-0.3-0.1-0.4-0.2c-0.7-0.3-1.2-0.5-1.7-0.7
	c0.3-0.5,0.4-1.1,0.4-1.8l0,0c0-1.6-0.8-3-1.8-3s-1.9,1.3-2,3l0,0c0,0.1,0,0.1,0,0.2c-0.6-0.3-1.3-0.5-1.9-0.6c0-0.1,0-0.1,0-0.2
	l0,0c-0.1-3,1.8-5.4,4.1-5.5s4.2,2.3,4.3,5.3l0,0C21.4,18.4,21,19.6,20.4,20.6L20.4,20.6z"/>
</svg>
