<?xml version="1.0" encoding="utf-8"?>
<!-- Generator: Adobe Illustrator 21.1.0, SVG Export Plug-In . SVG Version: 6.00 Build 0)  -->
<svg version="1.1" id="Layer_1" xmlns="http://www.w3.org/2000/svg" xmlns:xlink="http://www.w3.org/1999/xlink" x="0px" y="0px"
	 viewBox="0 0 32 32" style="enable-background:new 0 0 32 32;" xml:space="preserve">
<style type="text/css">
	.st0{fill:#FFFFFF;}
</style>
<title>finder</title>
<path d="M17.8,24.3L17.8,24.3L17.8,24.3z"/>
<path d="M17.8,25.5C17.8,25.4,17.8,25.4,17.8,25.5C17.8,25.4,17.8,25.4,17.8,25.5z"/>
<path d="M17.8,24.9L17.8,24.9L17.8,24.9z"/>
<path d="M30,0H2C0.9,0,0,0.9,0,2v28c0,1.1,0.9,2,2,2h15.4l0,0l0,0H30c1.1,0,2-0.9,2-2V2C32,0.9,31.1,0,30,0z M6,7c0-0.6,0.4-1,1-1
	s1,0.4,1,1v2c0,0.6-0.4,1-1,1S6,9.6,6,9V7z M30,30H18.3c-0.2-1.3-0.3-2.7-0.4-4l0,0c-0.6,0.1-1.2,0.1-1.9,0.1
	c-4.2,0-8.2-1.5-11.3-4.3c-0.5-0.4-0.5-1.1-0.1-1.6s1.1-0.5,1.6-0.1c2.7,2.4,6.2,3.7,9.8,3.7c0.6,0,1.2,0,1.8-0.1
	C17.7,20,18,17.1,18,17c0-0.3-0.1-0.6-0.3-0.8S17.3,16,17,16h-3c0-1.1,0.2-2.9,0.5-5c0.6-4,1.6-7.1,3-9H30V30L30,30z"/>
<path d="M25,10c-0.6,0-1-0.4-1-1V7c0-0.6,0.4-1,1-1s1,0.4,1,1v2C26,9.6,25.6,10,25,10z"/>
<path d="M16.9,26.1c-0.1,0-0.2,0-0.3,0C16.7,26.1,16.8,26.1,16.9,26.1z"/>
<path d="M16,26.1c0.1,0,0.3,0,0.4,0C16.3,26.1,16.1,26.1,16,26.1z"/>
<path d="M16.8,23.8C16.9,23.8,16.9,23.8,16.8,23.8C16.9,23.8,16.9,23.8,16.8,23.8z"/>
<path d="M16.4,23.9h0.1H16.4z"/>
<path d="M27.4,20.3c-0.4-0.5-1.1-0.5-1.6-0.1c-2.3,2-5.1,3.3-8.1,3.6c0,0.7,0,1.5,0.1,2.3c3.5-0.4,6.8-1.8,9.5-4.2
	C27.8,21.4,27.8,20.7,27.4,20.3z"/>
<path class="st0" d="M17.9,26c-0.1,0-0.3,0-0.4,0C17.6,26.1,17.7,26,17.9,26z"/>
<path d="M17.4,26.1c-0.1,0-0.2,0-0.4,0C17.1,26.1,17.2,26.1,17.4,26.1z"/>
</svg>
