<?xml version="1.0" encoding="UTF-8"?>
<svg width="512px" height="512px" viewBox="0 0 512 512" version="1.1" xmlns="http://www.w3.org/2000/svg" xmlns:xlink="http://www.w3.org/1999/xlink">
    <!-- Generator: Sketch 47.1 (45422) - http://www.bohemiancoding.com/sketch -->
    <title>models</title>
    <desc>Created with Sketch.</desc>
    <defs></defs>
    <g id="Page-1" stroke="none" stroke-width="1" fill="none" fill-rule="evenodd">
        <g id="models" fill-rule="nonzero">
            <g id="Group" transform="translate(51.000000, 93.000000)">
                <path d="M153.8,197.133 L153.8,60.6 C153.772,51.186 146.148,43.561 136.733,43.533 L17.267,43.533 C7.853,43.561 0.228,51.185 0.2,60.6 L0.2,273.933 C0.228,283.347 7.852,290.972 17.267,291 L136.734,291 C146.148,290.972 153.773,283.348 153.801,273.933 L153.801,231.266" id="Shape" fill="#F5F5F5"></path>
                <path d="M409.8,17.933 L409.8,35 L256.2,35 L256.2,17.933 C256.227,8.519 263.852,0.894 273.267,0.866 L392.734,0.866 C402.148,0.894 409.773,8.519 409.8,17.933 Z" id="Shape" fill="#209FFD"></path>
                <path d="M409.8,35 L409.8,231.267 C409.772,240.681 402.148,248.306 392.733,248.334 L273.267,248.334 C263.853,248.306 256.228,240.682 256.2,231.267 L256.2,35 L409.8,35 Z" id="Shape" fill="#F5F5F5"></path>
                <path d="M409.8,308.067 L409.8,325.134 L256.2,325.134 L256.2,308.067 C256.227,298.653 263.852,291.028 273.267,291 L392.734,291 C402.148,291.028 409.773,298.652 409.8,308.067 Z" id="Shape" fill="#209FFD"></path>
                <polygon id="Shape" fill="#F5F5F5" points="409.8 325.133 409.8 410.467 256.2 410.467 256.2 393.4 256.2 359.267 256.2 325.133"></polygon>
                <path d="M153.8,350.733 L153.8,367.8 L0.2,367.8 L0.2,350.733 C0.228,341.319 7.852,333.694 17.267,333.666 L136.734,333.666 C146.148,333.694 153.773,341.319 153.8,350.733 Z" id="Shape" fill="#209FFD"></path>
                <polygon id="Shape" fill="#F5F5F5" points="153.8 367.8 153.8 410.467 0.2 410.467 0.2 401.933 0.2 384.867 0.2 367.8"></polygon>
                <circle id="Oval" fill="#209FFD" cx="77" cy="180.067" r="34.133"></circle>
                <rect id="Rectangle-path" fill="#209FFD" x="298.867" y="69.133" width="34.133" height="42.667"></rect>
                <rect id="Rectangle-path" fill="#209FFD" x="281.8" y="145.933" width="51.2" height="42.667"></rect>
                <path d="M333,419 L281.8,419 C277.087,419 273.267,415.179 273.267,410.467 L273.267,359.267 C273.267,354.554 277.087,350.734 281.8,350.734 L333,350.734 C337.713,350.734 341.533,354.554 341.533,359.267 L341.533,410.467 C341.533,415.18 337.713,419 333,419 Z M290.333,401.933 L324.466,401.933 L324.466,367.8 L290.333,367.8 L290.333,401.933 Z" id="Shape" fill="#000000"></path>
                <polyline id="Shape" fill="#209FFD" points="333 248.333 333 222.733 281.8 222.733 281.8 248.333"></polyline>
                <path d="M153.8,60.6 L153.8,77.667 L0.2,77.667 L0.2,60.6 C0.228,51.186 7.852,43.561 17.267,43.533 L136.734,43.533 C146.148,43.561 153.773,51.186 153.8,60.6 Z" id="Shape" fill="#209FFD"></path>
                <g transform="translate(136.000000, 69.000000)" id="Oval" fill="#209FFD">
                    <circle cx="17.8" cy="145.2" r="17.067"></circle>
                    <circle cx="120.2" cy="17.2" r="17.067"></circle>
                </g>
                <rect id="Rectangle-path" fill="#209FFD" x="281.8" y="359.267" width="51.2" height="51.2"></rect>
            </g>
            <g id="Group" fill="#343E46">
                <path d="M494.933,0 L17.067,0 C7.645,0.009 0.009,7.645 0,17.067 L0,494.934 C0.009,504.356 7.645,511.991 17.067,512.001 L494.934,512.001 C504.356,511.992 511.991,504.356 512.001,494.934 L512.001,17.067 C511.991,7.645 504.355,0.009 494.933,0 Z M494.934,17.067 L494.934,51.2 L17.067,51.2 L17.067,17.067 L494.934,17.067 Z M196.267,452.267 L59.733,452.267 L59.733,443.734 C59.739,439.024 63.556,435.207 68.266,435.201 L187.733,435.201 C192.443,435.207 196.26,439.024 196.266,443.734 L196.266,452.267 L196.267,452.267 Z M59.733,469.333 L196.266,469.333 L196.266,494.933 L59.733,494.933 L59.733,469.333 Z M452.267,409.6 L315.733,409.6 L315.733,401.067 C315.739,396.357 319.556,392.54 324.266,392.534 L443.733,392.534 C448.443,392.54 452.26,396.357 452.266,401.067 L452.266,409.6 L452.267,409.6 Z M315.733,426.667 L452.266,426.667 L452.266,494.934 L392.533,494.934 L392.533,452.267 C392.533,447.554 388.713,443.734 384,443.734 L332.8,443.734 C328.087,443.734 324.267,447.554 324.267,452.267 L324.267,494.934 L315.734,494.934 L315.734,426.667 L315.733,426.667 Z M341.333,494.933 L341.333,460.8 L375.466,460.8 L375.466,494.933 L341.333,494.933 Z M469.333,494.933 L469.333,401.066 C469.318,386.934 457.865,375.481 443.733,375.466 L324.267,375.466 C310.135,375.481 298.682,386.934 298.667,401.066 L298.667,494.933 L213.334,494.933 L213.334,443.733 C213.319,429.601 201.866,418.148 187.734,418.133 L68.267,418.133 C54.135,418.148 42.682,429.601 42.667,443.733 L42.667,494.933 L17.067,494.933 L17.067,68.267 L494.935,68.267 L494.946,494.934 L469.333,494.934 L469.333,494.933 Z" id="Shape"></path>
                <path d="M42.667,42.667 L93.867,42.667 C98.58,42.667 102.4,38.846 102.4,34.134 C102.4,29.422 98.579,25.6 93.867,25.6 L42.667,25.6 C37.954,25.6 34.134,29.421 34.134,34.133 C34.134,38.845 37.954,42.667 42.667,42.667 Z" id="Shape"></path>
                <path d="M128,42.667 L145.067,42.667 C149.78,42.667 153.6,38.846 153.6,34.134 C153.6,29.422 149.779,25.601 145.067,25.601 L128,25.601 C123.287,25.601 119.467,29.422 119.467,34.134 C119.467,38.846 123.287,42.667 128,42.667 Z" id="Shape"></path>
                <path d="M179.2,42.667 L196.267,42.667 C200.98,42.667 204.8,38.846 204.8,34.134 C204.8,29.422 200.979,25.601 196.267,25.601 L179.2,25.601 C174.487,25.601 170.667,29.422 170.667,34.134 C170.667,38.846 174.487,42.667 179.2,42.667 Z" id="Shape"></path>
                <path d="M230.4,42.667 L247.467,42.667 C252.18,42.667 256,38.846 256,34.134 C256,29.422 252.18,25.601 247.467,25.601 L230.4,25.601 C225.687,25.601 221.867,29.422 221.867,34.134 C221.867,38.846 225.687,42.667 230.4,42.667 Z" id="Shape"></path>
                <path d="M281.6,42.667 L298.667,42.667 C303.38,42.667 307.2,38.846 307.2,34.134 C307.2,29.422 303.38,25.601 298.667,25.601 L281.6,25.601 C276.887,25.601 273.067,29.422 273.067,34.134 C273.067,38.846 276.887,42.667 281.6,42.667 Z" id="Shape"></path>
                <path d="M469.333,42.667 L477.866,42.667 C482.579,42.667 486.399,38.846 486.399,34.134 C486.399,29.422 482.579,25.601 477.866,25.601 L469.333,25.601 C464.62,25.601 460.8,29.422 460.8,34.134 C460.8,38.846 464.621,42.667 469.333,42.667 Z" id="Shape"></path>
                <path d="M443.733,85.333 L324.267,85.333 C310.135,85.348 298.682,96.801 298.667,110.933 L298.667,155.172 C288.468,158.764 281.634,168.386 281.6,179.2 C281.6,179.665 281.713,180.099 281.737,180.558 C259.013,194.985 245.895,220.596 247.466,247.466 C247.466,269.321 240.15,284.433 225.748,292.564 C222.684,288.221 218.345,284.939 213.333,283.172 L213.333,153.6 C213.318,139.468 201.865,128.015 187.733,128 L68.267,128 C54.135,128.015 42.682,139.468 42.667,153.6 L42.667,366.933 C42.682,381.065 54.135,392.518 68.267,392.533 L187.734,392.533 C201.866,392.518 213.319,381.065 213.334,366.933 L213.334,331.227 C222.707,327.887 229.28,319.4 230.169,309.49 C245.052,302.383 264.534,285.767 264.534,247.466 C263.128,227.485 272.21,208.211 288.514,196.575 C291.314,199.576 294.797,201.858 298.667,203.227 L298.667,324.267 C298.682,338.399 310.135,349.852 324.267,349.867 L443.734,349.867 C457.866,349.852 469.319,338.399 469.334,324.267 L469.334,110.933 C469.318,96.801 457.865,85.349 443.733,85.333 Z M68.267,145.067 L187.734,145.067 C192.444,145.073 196.261,148.89 196.267,153.6 L196.267,162.133 L59.733,162.133 L59.733,153.6 C59.739,148.89 63.556,145.073 68.267,145.067 Z M187.733,375.467 L68.267,375.467 C63.557,375.461 59.74,371.644 59.734,366.934 L59.734,179.2 L196.267,179.2 L196.267,283.172 C186.047,286.736 179.199,296.375 179.199,307.199 C179.199,318.023 186.046,327.662 196.267,331.226 L196.267,366.932 C196.261,371.644 192.444,375.461 187.733,375.467 Z M204.8,315.733 C200.087,315.733 196.267,311.913 196.267,307.2 C196.267,302.487 200.088,298.667 204.8,298.667 C209.513,298.667 213.333,302.487 213.333,307.2 C213.327,311.91 209.51,315.727 204.8,315.733 Z M324.267,102.4 L443.734,102.4 C448.444,102.406 452.261,106.223 452.267,110.933 L452.267,119.466 L315.733,119.466 L315.733,110.933 C315.739,106.223 319.556,102.406 324.267,102.4 Z M307.2,170.667 C311.913,170.667 315.733,174.488 315.733,179.2 C315.733,183.912 311.913,187.733 307.2,187.733 C302.487,187.733 298.667,183.913 298.667,179.2 C298.673,174.49 302.49,170.673 307.2,170.667 Z M375.467,332.8 L341.334,332.8 L341.334,324.267 L375.467,324.267 L375.467,332.8 Z M452.267,324.267 C452.261,328.977 448.444,332.794 443.734,332.8 L392.534,332.8 L392.534,315.733 C392.534,311.02 388.714,307.2 384.001,307.2 L332.801,307.2 C328.088,307.2 324.268,311.021 324.268,315.733 L324.268,332.8 C319.558,332.794 315.741,328.977 315.735,324.267 L315.735,203.228 C325.955,199.663 332.802,190.024 332.802,179.2 C332.802,168.376 325.955,158.737 315.735,155.172 L315.735,136.533 L452.268,136.533 L452.268,324.267 L452.267,324.267 Z" id="Shape"></path>
                <path d="M170.667,273.067 C170.667,249.503 151.564,230.4 128,230.4 C104.436,230.4 85.333,249.503 85.333,273.067 C85.333,296.631 104.436,315.734 128,315.734 C151.553,315.706 170.639,296.619 170.667,273.067 Z M128,298.667 C113.862,298.667 102.4,287.205 102.4,273.067 C102.4,258.929 113.862,247.467 128,247.467 C142.139,247.467 153.6,258.929 153.6,273.067 C153.585,287.199 142.132,298.651 128,298.667 Z" id="Shape"></path>
                <path d="M110.933,332.8 L85.333,332.8 C80.62,332.8 76.8,336.62 76.8,341.333 C76.8,346.046 80.621,349.866 85.333,349.866 L110.933,349.866 C115.646,349.866 119.466,346.045 119.466,341.333 C119.466,336.621 115.646,332.8 110.933,332.8 Z" id="Shape"></path>
                <path d="M170.667,332.8 L145.067,332.8 C140.354,332.8 136.534,336.62 136.534,341.333 C136.534,346.046 140.355,349.866 145.067,349.866 L170.667,349.866 C175.38,349.866 179.2,346.045 179.2,341.333 C179.2,336.621 175.38,332.8 170.667,332.8 Z" id="Shape"></path>
                <path d="M85.333,213.333 L170.666,213.333 C175.379,213.333 179.199,209.512 179.199,204.8 C179.199,200.087 175.378,196.267 170.666,196.267 L85.333,196.267 C80.62,196.267 76.8,200.088 76.8,204.8 C76.8,209.513 80.621,213.333 85.333,213.333 Z" id="Shape"></path>
                <path d="M349.867,213.333 L384,213.333 C388.713,213.333 392.533,209.512 392.533,204.8 L392.533,162.133 C392.533,157.42 388.713,153.6 384,153.6 L358.4,153.6 C353.687,153.6 349.867,157.421 349.867,162.133 C349.867,166.846 353.687,170.666 358.4,170.666 L375.467,170.666 L375.467,196.266 L349.867,196.266 C345.154,196.266 341.334,200.087 341.334,204.799 C341.333,209.513 345.154,213.333 349.867,213.333 Z" id="Shape"></path>
                <path d="M384,230.4 L332.8,230.4 C328.087,230.4 324.267,234.221 324.267,238.933 L324.267,281.6 C324.267,286.313 328.087,290.133 332.8,290.133 L384,290.133 C388.713,290.133 392.533,286.312 392.533,281.6 L392.533,238.933 C392.533,234.221 388.713,230.4 384,230.4 Z M375.467,273.067 L341.334,273.067 L341.334,247.467 L375.467,247.467 L375.467,273.067 Z" id="Shape"></path>
                <path d="M409.6,170.667 L426.667,170.667 C431.38,170.667 435.2,166.846 435.2,162.134 C435.2,157.421 431.38,153.601 426.667,153.601 L409.6,153.601 C404.887,153.601 401.067,157.422 401.067,162.134 C401.067,166.846 404.887,170.667 409.6,170.667 Z" id="Shape"></path>
                <path d="M409.6,196.267 L426.667,196.267 C431.38,196.267 435.2,192.446 435.2,187.734 C435.2,183.021 431.38,179.201 426.667,179.201 L409.6,179.201 C404.887,179.201 401.067,183.022 401.067,187.734 C401.067,192.446 404.887,196.267 409.6,196.267 Z" id="Shape"></path>
                <path d="M409.6,247.467 L426.667,247.467 C431.38,247.467 435.2,243.646 435.2,238.934 C435.2,234.221 431.38,230.401 426.667,230.401 L409.6,230.401 C404.887,230.401 401.067,234.222 401.067,238.934 C401.067,243.646 404.887,247.467 409.6,247.467 Z" id="Shape"></path>
                <path d="M409.6,273.067 L426.667,273.067 C431.38,273.067 435.2,269.247 435.2,264.534 C435.2,259.821 431.38,256 426.667,256 L409.6,256 C404.887,256 401.067,259.821 401.067,264.533 C401.067,269.245 404.887,273.067 409.6,273.067 Z" id="Shape"></path>
                <path d="M409.6,460.8 L426.667,460.8 C431.38,460.8 435.2,456.98 435.2,452.267 C435.2,447.554 431.38,443.734 426.667,443.734 L409.6,443.734 C404.887,443.734 401.067,447.554 401.067,452.267 C401.067,456.98 404.887,460.8 409.6,460.8 Z" id="Shape"></path>
                <path d="M409.6,486.4 L426.667,486.4 C431.38,486.4 435.2,482.58 435.2,477.867 C435.2,473.154 431.38,469.334 426.667,469.334 L409.6,469.334 C404.887,469.334 401.067,473.155 401.067,477.867 C401.067,482.579 404.887,486.4 409.6,486.4 Z" id="Shape"></path>
                <path d="M409.6,324.267 L426.667,324.267 C431.38,324.267 435.2,320.446 435.2,315.734 C435.2,311.021 431.38,307.201 426.667,307.201 L409.6,307.201 C404.887,307.201 401.067,311.022 401.067,315.734 C401.067,320.446 404.887,324.267 409.6,324.267 Z" id="Shape"></path>
            </g>
        </g>
    </g>
</svg>