<?xml version="1.0" encoding="UTF-8"?>
<svg width="512px" height="512px" viewBox="0 0 512 512" version="1.1" xmlns="http://www.w3.org/2000/svg" xmlns:xlink="http://www.w3.org/1999/xlink">
    <!-- Generator: Sketch 47.1 (45422) - http://www.bohemiancoding.com/sketch -->
    <title>result</title>
    <desc>Created with Sketch.</desc>
    <defs></defs>
    <g id="Page-1" stroke="none" stroke-width="1" fill="none" fill-rule="evenodd">
        <g id="result" fill-rule="nonzero">
            <g id="Group" transform="translate(42.000000, 59.000000)">
                <g transform="translate(205.000000, 239.000000)" id="Shape" fill="#209FFD">
                    <polygon points="60.2 0.667 85.8 34.8 0.467 34.8 0.467 0.667"></polygon>
                    <polygon points="256.467 0.667 256.467 34.8 154.067 34.8 128.467 0.667"></polygon>
                    <polyline points="60.2 68.933 34.6 111.6 85.8 111.6 60.2 68.933"></polyline>
                </g>
                <g transform="translate(205.000000, -0.000000)" id="Shape" fill="#209FFD">
                    <polygon points="60.2 0.733 85.8 34.867 0.467 34.867 0.467 0.733"></polygon>
                    <polygon points="256.467 0.733 256.467 34.867 154.067 34.867 128.467 0.733"></polygon>
                </g>
                <path d="M9.2,43.4 L162.8,43.4 C167.513,43.4 171.333,47.22 171.333,51.933 L171.333,154.333 C171.333,159.046 167.512,162.866 162.8,162.866 L9.2,162.866 C4.487,162.866 0.667,159.045 0.667,154.333 L0.667,51.933 C0.667,47.221 4.487,43.4 9.2,43.4 Z" id="Shape" fill="#209FFD"></path>
                <polygon id="Shape" fill="#F4F4F4" points="68.933 77.533 68.933 128.733 111.6 103.133"></polygon>
                <g transform="translate(9.000000, 231.000000)" id="Shape" fill="#209FFD">
                    <path d="M8.733,0.133 L51.4,0.133 C56.113,0.133 59.933,3.953 59.933,8.666 L59.933,42.8 C59.933,47.513 56.112,51.333 51.4,51.333 L8.733,51.333 C4.02,51.333 0.2,47.513 0.2,42.8 L0.2,8.667 C0.2,3.954 4.021,0.133 8.733,0.133 Z"></path>
                    <path d="M102.6,0.133 L145.267,0.133 C149.98,0.133 153.8,3.953 153.8,8.666 L153.8,42.8 C153.8,47.513 149.979,51.333 145.267,51.333 L102.6,51.333 C97.887,51.333 94.067,47.513 94.067,42.8 L94.067,8.667 C94.067,3.954 97.887,0.133 102.6,0.133 Z"></path>
                    <path d="M8.733,119.6 L51.4,119.6 C56.113,119.6 59.933,123.42 59.933,128.133 L59.933,162.266 C59.933,166.979 56.112,170.799 51.4,170.799 L8.733,170.799 C4.02,170.799 0.2,166.979 0.2,162.266 L0.2,128.133 C0.2,123.421 4.021,119.6 8.733,119.6 Z"></path>
                    <path d="M102.6,119.6 L145.267,119.6 C149.98,119.6 153.8,123.42 153.8,128.133 L153.8,162.266 C153.8,166.979 149.979,170.799 145.267,170.799 L102.6,170.799 C97.887,170.799 94.067,166.979 94.067,162.266 L94.067,128.133 C94.067,123.421 97.887,119.6 102.6,119.6 Z"></path>
                </g>
            </g>
            <g id="Group" fill="#343E46">
                <path d="M494.933,0 L17.067,0 C7.645,0.009 0.009,7.645 0,17.067 L0,494.934 C0.009,504.356 7.645,511.991 17.067,512.001 L494.934,512.001 C504.356,511.992 511.991,504.356 512.001,494.934 L512.001,17.067 C511.991,7.645 504.355,0.009 494.933,0 Z M494.941,324.268 L494.933,324.266 L405.332,324.266 L392.532,307.199 L494.941,307.199 L494.941,324.268 Z M337.066,324.267 L324.266,307.2 L371.201,307.2 L384.001,324.267 L337.066,324.267 Z M302.934,68.267 L315.734,85.334 L256,85.334 L256,68.267 L302.934,68.267 Z M494.935,85.334 L494.933,85.333 L405.332,85.333 L392.532,68.266 L494.935,68.266 L494.935,85.334 Z M452.267,204.8 L452.267,221.867 C447.554,221.867 443.734,225.687 443.734,230.4 C443.734,235.113 447.554,238.933 452.267,238.933 L452.267,290.133 L426.667,290.133 L426.667,273.066 C431.38,273.066 435.2,269.246 435.2,264.533 C435.2,259.82 431.38,256 426.667,256 L426.667,170.667 L452.267,170.667 L452.267,187.734 C447.554,187.734 443.734,191.555 443.734,196.267 C443.734,200.979 447.554,204.8 452.267,204.8 Z M375.467,290.133 L375.467,273.066 L409.6,273.066 L409.6,290.133 L375.467,290.133 Z M332.8,290.133 L332.8,102.4 L358.4,102.4 L358.4,119.467 L349.867,119.467 C345.154,119.467 341.334,123.288 341.334,128 C341.334,132.713 345.155,136.533 349.867,136.533 L358.4,136.533 L358.4,256 C353.687,256 349.867,259.821 349.867,264.533 C349.867,269.245 353.687,273.066 358.4,273.066 L358.4,290.133 L332.8,290.133 L332.8,290.133 Z M256,290.133 L256,102.4 L315.733,102.4 L315.733,290.133 L256,290.133 L256,290.133 Z M409.6,102.4 L409.6,119.467 L375.467,119.467 L375.467,102.4 L409.6,102.4 Z M401.067,170.667 L409.6,170.667 L409.6,256 L375.467,256 L375.467,136.533 L409.6,136.533 L409.6,153.6 L401.067,153.6 C396.354,153.6 392.534,157.421 392.534,162.133 C392.533,166.846 396.354,170.667 401.067,170.667 Z M426.667,153.6 L426.667,136.533 L435.2,136.533 C439.913,136.533 443.733,132.712 443.733,128 C443.733,123.287 439.912,119.467 435.2,119.467 L426.667,119.467 L426.667,102.4 L452.267,102.4 L452.267,153.6 L426.667,153.6 L426.667,153.6 Z M371.201,68.267 L384.001,85.334 L337.066,85.334 L324.266,68.267 L371.201,68.267 Z M256,307.2 L302.934,307.2 L315.734,324.267 L256,324.267 L256,307.2 Z M469.333,290.133 L469.333,238.933 C474.046,238.933 477.866,235.112 477.866,230.4 C477.866,225.688 474.045,221.867 469.333,221.867 L469.333,204.8 C474.046,204.8 477.866,200.979 477.866,196.267 C477.866,191.555 474.045,187.734 469.333,187.734 L469.333,170.667 C474.046,170.667 477.866,166.846 477.866,162.134 C477.866,157.421 474.045,153.601 469.333,153.601 L469.333,102.4 L494.933,102.401 L494.935,102.4 L494.94,290.134 L469.333,290.134 L469.333,290.133 Z M494.934,17.067 L494.934,51.2 L17.067,51.2 L17.067,17.067 L494.934,17.067 Z M17.067,68.267 L238.934,68.267 L238.934,494.934 L17.067,494.934 L17.067,68.267 Z M256,494.933 L256,341.332 L494.933,341.334 L494.942,341.332 L494.946,494.934 L256,494.934 L256,494.933 Z" id="Shape"></path>
                <path d="M42.667,42.667 L93.867,42.667 C98.58,42.667 102.4,38.846 102.4,34.134 C102.4,29.422 98.579,25.6 93.867,25.6 L42.667,25.6 C37.954,25.6 34.134,29.421 34.134,34.133 C34.134,38.845 37.954,42.667 42.667,42.667 Z" id="Shape"></path>
                <path d="M128,42.667 L145.067,42.667 C149.78,42.667 153.6,38.846 153.6,34.134 C153.6,29.422 149.779,25.601 145.067,25.601 L128,25.601 C123.287,25.601 119.467,29.422 119.467,34.134 C119.467,38.846 123.287,42.667 128,42.667 Z" id="Shape"></path>
                <path d="M179.2,42.667 L196.267,42.667 C200.98,42.667 204.8,38.846 204.8,34.134 C204.8,29.422 200.979,25.601 196.267,25.601 L179.2,25.601 C174.487,25.601 170.667,29.422 170.667,34.134 C170.667,38.846 174.487,42.667 179.2,42.667 Z" id="Shape"></path>
                <path d="M230.4,42.667 L247.467,42.667 C252.18,42.667 256,38.846 256,34.134 C256,29.422 252.18,25.601 247.467,25.601 L230.4,25.601 C225.687,25.601 221.867,29.422 221.867,34.134 C221.867,38.846 225.687,42.667 230.4,42.667 Z" id="Shape"></path>
                <path d="M281.6,42.667 L298.667,42.667 C303.38,42.667 307.2,38.846 307.2,34.134 C307.2,29.422 303.38,25.601 298.667,25.601 L281.6,25.601 C276.887,25.601 273.067,29.422 273.067,34.134 C273.067,38.846 276.887,42.667 281.6,42.667 Z" id="Shape"></path>
                <path d="M469.333,42.667 L477.866,42.667 C482.579,42.667 486.399,38.846 486.399,34.134 C486.399,29.422 482.579,25.601 477.866,25.601 L469.333,25.601 C464.62,25.601 460.8,29.422 460.8,34.134 C460.8,38.846 464.621,42.667 469.333,42.667 Z" id="Shape"></path>
                <path d="M204.8,93.867 L51.2,93.867 C41.778,93.876 34.143,101.512 34.133,110.934 L34.133,213.334 C34.142,222.756 41.778,230.391 51.2,230.401 L204.8,230.401 C214.222,230.392 221.857,222.756 221.867,213.334 L221.867,110.934 C221.857,101.512 214.222,93.876 204.8,93.867 Z M51.2,213.333 L51.2,110.933 L204.8,110.933 L204.812,213.333 L51.2,213.333 Z" id="Shape"></path>
                <path d="M157.992,154.817 L115.325,129.217 C112.689,127.635 109.405,127.594 106.73,129.108 C104.055,130.623 102.4,133.459 102.4,136.533 L102.4,187.733 C102.4,190.808 104.054,193.645 106.73,195.159 C109.406,196.673 112.689,196.632 115.325,195.049 L157.992,169.449 C160.562,167.907 162.134,165.129 162.134,162.132 C162.134,159.136 160.561,156.359 157.992,154.817 Z M119.467,172.663 L119.467,151.605 L137.013,162.134 L119.467,172.663 Z" id="Shape"></path>
                <path d="M45.908,263.85 C46.941,263.416 47.894,262.81 48.725,262.059 C49.066,261.63 49.408,261.205 49.746,260.78 C50.07,260.304 50.329,259.787 50.517,259.242 C50.762,258.757 50.935,258.239 51.029,257.704 C51.127,257.141 51.184,256.571 51.2,256 C51.23,254.879 50.995,253.768 50.517,252.754 C50.083,251.722 49.477,250.771 48.726,249.941 C47.896,249.187 46.944,248.579 45.909,248.145 C44.352,247.466 42.622,247.288 40.959,247.637 C40.424,247.728 39.906,247.9 39.421,248.145 C38.878,248.333 38.363,248.593 37.888,248.916 C37.44,249.23 37.012,249.572 36.609,249.941 C35.855,250.769 35.247,251.721 34.813,252.754 C34.377,253.781 34.146,254.884 34.134,256 C34.147,256.572 34.205,257.141 34.305,257.704 C34.396,258.239 34.568,258.757 34.813,259.242 C35,259.786 35.26,260.304 35.584,260.78 C35.9,261.227 36.242,261.654 36.609,262.059 C37.013,262.427 37.44,262.768 37.888,263.08 C38.363,263.403 38.879,263.662 39.421,263.851 C39.906,264.096 40.424,264.269 40.959,264.363 C41.524,264.461 42.095,264.518 42.667,264.534 C43.781,264.52 44.883,264.287 45.908,263.85 Z" id="Shape"></path>
                <path d="M61.183,260.779 C61.499,261.226 61.841,261.653 62.208,262.058 C63.038,262.81 63.989,263.416 65.02,263.85 C66.047,264.288 67.15,264.52 68.266,264.533 C68.837,264.517 69.407,264.46 69.97,264.362 C70.505,264.267 71.023,264.094 71.508,263.85 C72.052,263.663 72.57,263.403 73.046,263.079 C73.493,262.765 73.92,262.424 74.325,262.058 C74.691,261.653 75.032,261.225 75.346,260.779 C75.67,260.303 75.929,259.786 76.117,259.241 C76.362,258.756 76.535,258.238 76.629,257.703 C76.727,257.14 76.784,256.57 76.8,255.999 C76.787,254.883 76.555,253.78 76.117,252.753 C75.683,251.721 75.077,250.77 74.326,249.94 C73.921,249.573 73.493,249.231 73.047,248.915 C72.571,248.591 72.054,248.332 71.509,248.144 C71.025,247.899 70.506,247.727 69.971,247.636 C68.308,247.288 66.578,247.465 65.021,248.144 C62.882,248.928 61.197,250.613 60.413,252.752 C59.976,253.779 59.745,254.882 59.733,255.998 C59.746,256.57 59.804,257.139 59.904,257.702 C59.995,258.237 60.167,258.755 60.412,259.24 C60.6,259.786 60.859,260.303 61.183,260.779 Z" id="Shape"></path>
                <path d="M219.392,249.941 C218.987,249.574 218.559,249.232 218.113,248.916 C217.637,248.592 217.12,248.333 216.575,248.145 C216.091,247.899 215.573,247.728 215.037,247.637 C213.374,247.289 211.644,247.466 210.087,248.145 C207.948,248.929 206.263,250.614 205.479,252.753 C205.003,253.768 204.77,254.879 204.799,255.999 C204.812,256.571 204.87,257.14 204.97,257.703 C205.061,258.238 205.233,258.756 205.478,259.241 C205.665,259.785 205.925,260.303 206.249,260.779 C206.565,261.226 206.907,261.653 207.274,262.058 C208.104,262.81 209.055,263.416 210.087,263.85 C211.114,264.288 212.217,264.52 213.333,264.533 C213.904,264.517 214.474,264.46 215.037,264.362 C215.572,264.267 216.09,264.094 216.575,263.85 C217.119,263.663 217.637,263.403 218.113,263.079 C219.042,262.494 219.828,261.708 220.413,260.779 C220.737,260.303 220.996,259.786 221.184,259.241 C221.429,258.756 221.602,258.238 221.697,257.703 C221.795,257.14 221.852,256.57 221.868,255.999 C221.855,254.883 221.623,253.78 221.185,252.753 C220.749,251.722 220.144,250.771 219.392,249.941 Z" id="Shape"></path>
                <path d="M179.2,264.533 C183.913,264.533 187.733,260.712 187.733,256 C187.733,251.287 183.913,247.467 179.2,247.467 L93.867,247.467 C89.154,247.467 85.334,251.288 85.334,256 C85.334,260.713 89.155,264.533 93.867,264.533 L179.2,264.533 Z" id="Shape"></path>
                <path d="M102.4,281.6 L59.733,281.6 C50.311,281.609 42.676,289.245 42.666,298.667 L42.666,332.8 C42.675,342.222 50.311,349.857 59.733,349.867 L102.4,349.867 C111.822,349.858 119.457,342.222 119.467,332.8 L119.467,298.667 C119.457,289.245 111.822,281.609 102.4,281.6 Z M59.733,332.8 L59.733,298.667 L102.4,298.667 L102.412,332.8 L59.733,332.8 Z" id="Shape"></path>
                <path d="M110.933,366.933 L51.2,366.933 C46.487,366.933 42.667,370.754 42.667,375.466 C42.667,380.179 46.488,383.999 51.2,383.999 L110.933,383.999 C115.646,383.999 119.466,380.178 119.466,375.466 C119.467,370.754 115.646,366.933 110.933,366.933 Z" id="Shape"></path>
                <path d="M196.267,281.6 L153.6,281.6 C144.178,281.609 136.543,289.245 136.533,298.667 L136.533,332.8 C136.542,342.222 144.178,349.857 153.6,349.867 L196.267,349.867 C205.689,349.858 213.324,342.222 213.334,332.8 L213.334,298.667 C213.324,289.245 205.688,281.609 196.267,281.6 Z M153.6,332.8 L153.6,298.667 L196.267,298.667 L196.279,332.8 L153.6,332.8 Z" id="Shape"></path>
                <path d="M204.8,366.933 L145.067,366.933 C140.354,366.933 136.534,370.754 136.534,375.466 C136.534,380.179 140.355,383.999 145.067,383.999 L204.8,383.999 C209.513,383.999 213.333,380.178 213.333,375.466 C213.333,370.754 209.513,366.933 204.8,366.933 Z" id="Shape"></path>
                <path d="M102.4,401.067 L59.733,401.067 C50.311,401.076 42.676,408.712 42.666,418.134 L42.666,452.267 C42.675,461.689 50.311,469.324 59.733,469.334 L102.4,469.334 C111.822,469.325 119.457,461.689 119.467,452.267 L119.467,418.134 C119.457,408.712 111.822,401.076 102.4,401.067 Z M59.733,452.267 L59.733,418.134 L102.4,418.134 L102.412,452.267 L59.733,452.267 Z" id="Shape"></path>
                <path d="M196.267,401.067 L153.6,401.067 C144.178,401.076 136.543,408.712 136.533,418.134 L136.533,452.267 C136.542,461.689 144.178,469.324 153.6,469.334 L196.267,469.334 C205.689,469.325 213.324,461.689 213.334,452.267 L213.334,418.134 C213.324,408.712 205.688,401.076 196.267,401.067 Z M153.6,452.267 L153.6,418.134 L196.267,418.134 L196.279,452.267 L153.6,452.267 Z" id="Shape"></path>
                <path d="M281.6,136.533 L290.133,136.533 C294.846,136.533 298.666,132.712 298.666,128 C298.666,123.287 294.845,119.467 290.133,119.467 L281.6,119.467 C276.887,119.467 273.067,123.288 273.067,128 C273.067,132.713 276.887,136.533 281.6,136.533 Z" id="Shape"></path>
                <path d="M290.133,153.6 L281.6,153.6 C276.887,153.6 273.067,157.421 273.067,162.133 C273.067,166.846 276.887,170.666 281.6,170.666 L290.133,170.666 C294.846,170.666 298.666,166.845 298.666,162.133 C298.667,157.421 294.846,153.6 290.133,153.6 Z" id="Shape"></path>
                <path d="M290.133,187.733 L281.6,187.733 C276.887,187.733 273.067,191.554 273.067,196.266 C273.067,200.978 276.887,204.799 281.6,204.799 L290.133,204.799 C294.846,204.799 298.666,200.978 298.666,196.266 C298.666,191.554 294.846,187.733 290.133,187.733 Z" id="Shape"></path>
                <path d="M290.133,221.867 L281.6,221.867 C276.887,221.867 273.067,225.687 273.067,230.4 C273.067,235.113 276.887,238.933 281.6,238.933 L290.133,238.933 C294.846,238.933 298.666,235.112 298.666,230.4 C298.666,225.688 294.846,221.867 290.133,221.867 Z" id="Shape"></path>
                <path d="M290.133,256 L281.6,256 C276.887,256 273.067,259.821 273.067,264.533 C273.067,269.245 276.887,273.066 281.6,273.066 L290.133,273.066 C294.846,273.066 298.666,269.246 298.666,264.533 C298.666,259.82 294.846,256 290.133,256 Z" id="Shape"></path>
                <path d="M281.6,418.133 L332.8,418.133 C335.874,418.133 338.711,416.478 340.225,413.803 C341.74,411.128 341.698,407.844 340.116,405.208 L314.516,362.541 C312.862,360.128 310.125,358.685 307.199,358.685 C304.273,358.685 301.536,360.128 299.882,362.541 L274.282,405.208 C272.7,407.844 272.659,411.128 274.173,413.803 C275.689,416.479 278.526,418.133 281.6,418.133 Z M307.2,383.521 L317.729,401.067 L296.671,401.067 L307.2,383.521 Z" id="Shape"></path>
                <path d="M358.4,384 L366.933,384 C371.646,384 375.466,380.179 375.466,375.467 C375.466,370.754 371.646,366.934 366.933,366.934 L358.4,366.934 C353.687,366.934 349.867,370.755 349.867,375.467 C349.867,380.18 353.687,384 358.4,384 Z" id="Shape"></path>
                <path d="M401.067,384 L418.134,384 C422.847,384 426.667,380.179 426.667,375.467 C426.667,370.754 422.847,366.934 418.134,366.934 L401.067,366.934 C396.354,366.934 392.534,370.755 392.534,375.467 C392.533,380.18 396.354,384 401.067,384 Z" id="Shape"></path>
                <path d="M469.333,366.933 L452.266,366.933 C447.553,366.933 443.733,370.754 443.733,375.466 C443.733,380.179 447.553,383.999 452.266,383.999 L469.333,383.999 C474.046,383.999 477.866,380.178 477.866,375.466 C477.867,370.754 474.046,366.933 469.333,366.933 Z" id="Shape"></path>
                <path d="M418.133,401.067 L375.466,401.067 C370.753,401.067 366.933,404.888 366.933,409.6 C366.933,414.313 370.754,418.133 375.466,418.133 L418.133,418.133 C422.846,418.133 426.666,414.312 426.666,409.6 C426.667,404.887 422.846,401.067 418.133,401.067 Z" id="Shape"></path>
                <path d="M307.2,435.2 L281.6,435.2 C276.887,435.2 273.067,439.021 273.067,443.733 C273.067,448.446 276.887,452.266 281.6,452.266 L307.2,452.266 C311.913,452.266 315.733,448.445 315.733,443.733 C315.733,439.021 311.913,435.2 307.2,435.2 Z" id="Shape"></path>
                <path d="M384,435.2 L341.333,435.2 C336.62,435.2 332.8,439.021 332.8,443.733 C332.8,448.446 336.62,452.266 341.333,452.266 L384,452.266 C388.713,452.266 392.533,448.445 392.533,443.733 C392.533,439.021 388.713,435.2 384,435.2 Z" id="Shape"></path>
                <path d="M460.8,435.2 L418.133,435.2 C413.42,435.2 409.6,439.021 409.6,443.733 C409.6,448.446 413.42,452.266 418.133,452.266 L460.8,452.266 C465.513,452.266 469.333,448.445 469.333,443.733 C469.333,439.021 465.513,435.2 460.8,435.2 Z" id="Shape"></path>
                <path d="M469.333,401.067 L452.266,401.067 C447.553,401.067 443.733,404.888 443.733,409.6 C443.733,414.313 447.553,418.133 452.266,418.133 L469.333,418.133 C474.046,418.133 477.866,414.312 477.866,409.6 C477.867,404.887 474.046,401.067 469.333,401.067 Z" id="Shape"></path>
            </g>
        </g>
    </g>
</svg>